# Blender (sub 0) OBJ File: ''
# www.blender.org
mtllib Player 5.mtl
o Cube_Cube.002
v -0.720000 0.000000 0.000000
v -0.000000 0.000000 -0.720000
v 0.720000 0.000000 0.000000
v -0.000000 0.000000 0.720000
v -0.000000 -0.800000 0.000000
v -0.000000 0.800000 0.000000
v -0.540000 -0.600000 0.000000
v -0.540000 0.000000 0.540000
v -0.540000 0.600000 0.000000
v -0.540000 0.000000 -0.540000
v -0.000000 -0.600000 -0.540000
v 0.540000 0.000000 -0.540000
v 0.540000 -0.600000 0.000000
v 0.540000 0.600000 0.000000
v 0.540000 0.000000 0.540000
v -0.000000 -0.600000 0.500270
v -0.000000 0.600000 0.540000
v -0.400000 -0.444444 0.400000
v -0.400000 0.444444 0.400000
v -0.400000 -0.444444 -0.400000
v 0.400000 -0.444444 0.400000
v 0.400000 0.444444 0.400000
v 0.400000 -0.444444 -0.400000
v -0.000000 -0.174543 0.713512
v -0.000000 -0.487923 0.573542
v 0.000000 -0.248207 0.580471
v 0.000000 -0.349304 0.711247
v -0.764629 0.344172 -0.118538
v 0.004071 0.327334 -0.706612
v 0.764960 0.321729 -0.108256
v -0.004330 0.339416 0.569424
v -0.009964 -0.354440 -0.106955
v 0.009181 0.944772 -0.119131
v -0.880184 -0.108652 -0.115011
v -0.576667 0.346021 0.374357
v -0.566669 0.800233 -0.121553
v -0.570784 0.337560 -0.519257
v -0.001909 -0.128118 -0.811219
v 0.009574 0.788011 -0.519701
v 0.576408 0.320728 -0.511545
v 0.867122 -0.134290 -0.103265
v 0.580523 0.783401 -0.113841
v 0.570525 0.329189 0.382069
v -0.011743 -0.113975 0.682548
v 0.003151 0.797248 0.455935
v -0.654732 0.074574 0.449983
v -0.422509 0.683109 0.305474
v -0.647880 0.064720 -0.590750
v -0.418044 0.676688 -0.372723
v 0.639569 0.055583 0.458684
v 0.427263 0.670641 0.311187
v 0.646421 0.045729 -0.582049
v 0.431728 0.664219 -0.367010
v -0.135792 0.214549 0.658755
v -0.132252 0.291503 0.637179
v -0.111591 0.192934 0.585631
v -0.108051 0.269888 0.564055
v -0.238784 0.374210 0.577474
v -0.235244 0.451165 0.555898
v -0.214583 0.352596 0.504350
v -0.211043 0.429550 0.482774
v -0.334205 0.261374 0.491725
v -0.337745 0.184419 0.513300
v -0.361946 0.206034 0.586424
v -0.358406 0.282989 0.564849
v 0.135792 0.214549 0.658755
v 0.132252 0.291503 0.637179
v 0.111591 0.192934 0.585631
v 0.108051 0.269888 0.564055
v 0.238784 0.374210 0.577474
v 0.235244 0.451165 0.555898
v 0.214583 0.352596 0.504350
v 0.211043 0.429550 0.482774
v 0.334205 0.261374 0.491725
v 0.337745 0.184419 0.513300
v 0.361946 0.206034 0.586424
v 0.358406 0.282989 0.564849
v 0.647235 0.060048 -0.589050
v 0.647235 0.060048 0.451752
v -0.647235 0.060048 -0.589050
v -0.647235 0.060048 0.451752
v 0.000000 -0.121177 0.678284
v 0.873767 -0.121177 -0.113455
v 0.000000 -0.121177 -0.815582
v -0.873767 -0.121177 -0.113455
vt 0.022263 0.321426
vt 0.135720 0.226162
vt 0.176873 0.320672
vt 0.119657 0.414669
vt 0.022931 0.515814
vt 0.132488 0.429434
vt 0.179101 0.531353
vt 0.131490 0.623727
vt 0.514674 0.325764
vt 0.407660 0.415276
vt 0.358119 0.314747
vt 0.403040 0.221035
vt 0.271186 0.445971
vt 0.268209 0.313597
vt 0.133471 0.421442
vt 0.178442 0.318788
vt 0.022541 0.336832
vt 0.129354 0.227190
vt 0.515177 0.518981
vt 0.405239 0.625488
vt 0.358820 0.532509
vt 0.406741 0.431198
vt 0.518719 0.321426
vt 0.421326 0.414669
vt 0.364110 0.320672
vt 0.405263 0.226162
vt 0.270187 0.251001
vt 0.270652 0.211355
vt 0.399398 0.251001
vt 0.269792 0.402698
vt 0.268940 0.535102
vt 0.141011 0.247965
vt 0.265454 0.191086
vt 0.270491 0.198598
vt 0.270491 0.317523
vt 0.268152 0.657641
vt 0.270491 0.346856
vt 0.270491 0.390804
vt 0.769378 0.990353
vt 0.637597 0.985829
vt 0.769976 0.955514
vt 0.770608 0.918711
vt 0.901237 0.990353
vt 0.722307 0.183040
vt 0.840258 0.090985
vt 0.899209 0.285721
vt 0.814094 0.319709
vt 0.722298 0.375424
vt 0.607351 0.298251
vt 0.732492 0.183862
vt 0.603411 0.294835
vt 0.687365 0.358340
vt 0.805456 0.311643
vt 0.896781 0.278951
vt 0.862403 0.093618
vt 0.831513 0.498443
vt 0.981711 0.501655
vt 0.688182 0.495378
vt 0.681507 0.632256
vt 0.797494 0.683959
vt 0.887337 0.720525
vt 0.719133 0.808504
vt 0.844966 0.904217
vt 0.594915 0.692114
vt 0.706433 0.797052
vt 0.597584 0.676056
vt 0.716365 0.604925
vt 0.805159 0.665309
vt 0.888404 0.703649
vt 0.819571 0.895082
vt 0.842715 0.493364
vt 0.983957 0.497016
vt 0.721480 0.490230
vt 0.796962 0.520908
vt 0.584106 0.516846
vt 0.631009 0.387781
vt 0.799687 0.347316
vt 0.967012 0.393056
vt 1.009841 0.523477
vt 0.962810 0.672750
vt 0.793916 0.714908
vt 0.626429 0.667469
vt 0.555549 0.492542
vt 0.558309 0.486012
vt 0.865775 0.014243
vt 0.883935 0.014243
vt 0.883935 0.032403
vt 0.865775 0.032403
vt 0.793510 0.077436
vt 0.793510 0.030074
vt 0.811670 0.030074
vt 0.811670 0.077436
vt 0.961709 0.042966
vt 0.988068 0.004160
vt 0.988068 0.022321
vt 0.961709 0.061126
vt 0.766689 0.044027
vt 0.766689 0.062187
vt 0.719778 0.062187
vt 0.719778 0.044027
vt 0.883935 0.079314
vt 0.865775 0.079314
vt 0.793510 0.011914
vt 0.811670 0.011914
vt 0.934135 0.022618
vt 0.934135 0.004458
vt 0.672416 0.062187
vt 0.672416 0.044027
vt 0.858545 0.013117
vt 0.858545 0.031277
vt 0.840385 0.031277
vt 0.840385 0.013117
vt 0.833154 0.077061
vt 0.814994 0.077061
vt 0.814994 0.029699
vt 0.833154 0.029699
vt 0.962446 0.069189
vt 0.962446 0.087350
vt 0.936088 0.048544
vt 0.936088 0.030384
vt 0.672416 0.011686
vt 0.719327 0.011686
vt 0.719327 0.029846
vt 0.672416 0.029846
vt 0.840385 0.078187
vt 0.858545 0.078187
vt 0.833154 0.011539
vt 0.814994 0.011539
vt 0.990021 0.030682
vt 0.990021 0.048842
vt 0.766689 0.011686
vt 0.766689 0.029846
vn -0.8806 -0.3170 0.3522
vn -0.8806 0.3170 0.3522
vn -0.8806 -0.3170 -0.3522
vn -0.3522 -0.3170 -0.8806
vn 0.3522 -0.3170 -0.8806
vn 0.8806 -0.3170 -0.3522
vn 0.8806 0.3170 0.3522
vn 0.8806 -0.3170 0.3522
vn 0.3160 -0.0352 0.9481
vn 0.3522 0.3170 0.8806
vn -0.3522 0.3170 0.8806
vn -0.3160 -0.0352 0.9481
vn -0.3763 -0.8466 -0.3763
vn 0.3763 -0.8466 -0.3763
vn 0.3618 -0.8465 0.3906
vn -0.3618 -0.8465 0.3906
vn -0.3763 0.8466 0.3763
vn 0.3763 0.8466 0.3763
vn 0.5628 -0.5826 0.5864
vn -0.4015 -0.8012 0.4436
vn 0.4020 -0.3879 0.8294
vn -0.4020 -0.3879 0.8294
vn 0.3029 0.7540 0.5829
vn -0.3029 0.7540 0.5829
vn 0.4015 -0.8012 0.4436
vn -0.5628 -0.5826 0.5864
vn 0.3893 -0.5040 0.7710
vn -0.3893 -0.5040 0.7710
vn -0.9104 0.2770 0.3073
vn -0.8421 0.4060 0.3549
vn -0.7638 0.4246 -0.4861
vn -0.8851 0.2705 -0.3789
vn -0.2679 0.2552 -0.9290
vn -0.3251 0.4180 -0.8483
vn 0.3486 0.4081 -0.8438
vn 0.2877 0.2470 -0.9253
vn 0.8976 0.2443 -0.3669
vn 0.7824 0.4019 -0.4757
vn 0.8488 0.3812 0.3663
vn 0.9139 0.2502 0.3196
vn 0.2756 0.2646 0.9242
vn 0.3367 0.2656 0.9034
vn -0.3409 0.2755 0.8988
vn -0.2801 0.2727 0.9204
vn -0.3055 -0.8812 -0.3607
vn 0.2843 -0.8899 -0.3568
vn 0.2778 -0.9007 0.3340
vn -0.3085 -0.8921 0.3300
vn 0.3116 0.8480 -0.4287
vn -0.2808 0.8567 -0.4327
vn -0.2800 0.9179 0.2810
vn 0.3030 0.9094 0.2849
vn 0.9521 0.0411 0.3029
vn -0.7484 0.5266 -0.4033
vn -0.3025 0.2702 0.9140
vn -0.8125 -0.5745 -0.0991
vn 0.8125 0.5745 0.0991
vn -0.9521 -0.0411 -0.3029
vn 0.7484 -0.5266 0.4033
vn -0.9521 0.0411 0.3029
vn 0.7484 0.5266 -0.4033
vn 0.3025 0.2702 0.9140
vn 0.8125 -0.5745 -0.0991
vn -0.8125 0.5745 0.0991
vn 0.9521 -0.0411 -0.3029
vn -0.7484 -0.5266 0.4033
usemtl Material.007
s off
f 1/1/1 7/2/1 18/3/1 8/4/1
f 1/5/2 8/6/2 19/7/2 9/8/2
f 1/9/3 10/10/3 20/11/3 7/12/3
f 2/13/4 11/14/4 20/11/4 10/10/4
f 2/13/5 12/15/5 23/16/5 11/14/5
f 3/17/6 13/18/6 23/16/6 12/15/6
f 3/19/7 14/20/7 22/21/7 15/22/7
f 3/23/8 15/24/8 21/25/8 13/26/8
f 4/27/9 24/28/9 15/29/9
f 4/30/10 15/22/10 22/21/10 17/31/10
f 4/30/11 17/31/11 19/7/11 8/6/11
f 4/27/12 8/32/12 24/28/12
f 5/33/13 7/12/13 20/11/13 11/14/13
f 5/33/14 11/14/14 23/16/14 13/18/14
f 5/34/15 13/26/15 21/25/15 16/35/15
f 5/34/16 16/35/16 18/3/16 7/2/16
f 6/36/17 9/8/17 19/7/17 17/31/17
f 6/36/18 17/31/18 22/21/18 14/20/18
f 25/37/19 15/24/19 27/38/19
f 24/39/20 8/40/20 26/41/20
f 25/37/21 21/25/21 15/24/21
f 25/37/22 8/4/22 18/3/22
f 26/41/23 8/40/23 27/42/23
f 15/43/24 26/41/24 27/42/24
f 15/43/25 24/39/25 26/41/25
f 8/4/26 25/37/26 27/38/26
f 21/25/27 25/37/27 16/35/27
f 18/3/28 16/35/28 25/37/28
f 28/44/29 34/45/29 46/46/29 35/47/29
f 28/44/30 35/47/30 47/48/30 36/49/30
f 28/50/31 36/51/31 49/52/31 37/53/31
f 28/50/32 37/53/32 48/54/32 34/55/32
f 29/56/33 38/57/33 48/54/33 37/53/33
f 29/56/34 37/53/34 49/52/34 39/58/34
f 29/56/35 39/58/35 53/59/35 40/60/35
f 29/56/36 40/60/36 52/61/36 38/57/36
f 30/62/37 41/63/37 52/61/37 40/60/37
f 30/62/38 40/60/38 53/59/38 42/64/38
f 30/65/39 42/66/39 51/67/39 43/68/39
f 30/65/40 43/68/40 50/69/40 41/70/40
f 31/71/41 44/72/41 50/69/41 43/68/41
f 31/71/42 43/68/42 51/67/42 45/73/42
f 31/71/43 45/73/43 47/48/43 35/47/43
f 31/71/44 35/47/44 46/46/44 44/72/44
f 32/74/45 34/75/45 48/76/45 38/77/45
f 32/74/46 38/77/46 52/78/46 41/79/46
f 32/74/47 41/79/47 50/80/47 44/81/47
f 32/74/48 44/81/48 46/82/48 34/75/48
f 33/83/49 42/64/49 53/59/49 39/58/49
f 33/83/50 39/58/50 49/52/50 36/51/50
f 33/84/51 36/49/51 47/48/51 45/73/51
f 33/84/52 45/73/52 51/67/52 42/66/52
f 54/85/53 56/86/53 57/87/53 55/88/53
f 61/89/54 62/90/54 65/91/54 59/92/54
f 58/93/55 54/94/55 55/95/55 59/96/55
f 56/97/56 54/98/56 58/99/56 60/100/56
f 61/101/57 59/102/57 55/88/57 57/87/57
f 63/103/58 64/104/58 65/91/58 62/90/58
f 59/96/55 65/105/55 64/106/55 58/93/55
f 58/99/59 64/107/59 63/108/59 60/100/59
f 66/109/60 67/110/60 69/111/60 68/112/60
f 73/113/61 71/114/61 77/115/61 74/116/61
f 70/117/62 71/118/62 67/119/62 66/120/62
f 68/121/63 72/122/63 70/123/63 66/124/63
f 73/125/64 69/111/64 67/110/64 71/126/64
f 75/127/65 74/116/65 77/115/65 76/128/65
f 71/118/62 70/117/62 76/129/62 77/130/62
f 70/123/66 72/122/66 75/131/66 76/132/66
l 82 79
l 81 82
l 83 78
l 79 83
l 84 80
l 78 84
l 85 81
l 80 85
