# Blender (sub 0) OBJ File: 'o4.blend'
# www.blender.org
mtllib o4.mtl
o Icosphere.001
v 0.506555 -0.430041 0.424620
v 0.672907 -0.200008 -0.219308
v 0.352318 -0.086711 0.600092
v 0.773145 0.312100 -0.275110
v 0.755261 0.239034 0.419005
v 0.128060 -0.048223 0.764535
v 0.178466 -0.167170 0.743831
v 0.668535 0.657374 -0.069760
v 0.695161 0.652346 0.268137
v 0.588146 0.985442 0.294263
v 0.601199 1.013884 -0.038618
v 1.028323 0.668516 0.087576
v 0.141336 -0.112673 0.568242
v 0.301017 0.318359 0.681017
v 0.172226 0.195248 0.760739
v 0.178644 0.133840 0.774333
v 0.436921 0.132387 0.679044
v 0.437557 0.197400 0.661900
v 0.205712 0.275245 0.727531
v 0.401844 0.270410 0.656140
v 0.314447 0.224297 0.731736
v 0.188759 0.254251 0.661663
v 0.394308 0.185235 0.603476
v 0.393744 0.127596 0.618676
v 0.164762 0.128884 0.703156
v 0.159072 0.183327 0.691105
v 0.273255 0.292475 0.620425
v 0.362646 0.249964 0.598370
v 0.264017 0.198349 0.600526
v 0.000000 -0.648306 -0.221827
v -0.506555 -0.430041 0.424620
v 0.000000 -0.388438 -0.648952
v -0.672907 -0.200008 -0.219308
v -0.352318 -0.086711 0.600092
v -0.773145 0.312100 -0.275110
v -0.755261 0.239034 0.419005
v 0.000000 0.539962 0.457108
v 0.000000 0.681640 -0.185675
v 0.000000 0.127799 -0.673439
v 0.000000 -0.642715 0.413084
v -0.128060 -0.048223 0.764535
v 0.000000 0.029528 0.774387
v 0.000000 -0.442292 0.641667
v -0.178466 -0.167170 0.743831
v 0.000000 -0.109719 0.568242
v 0.000000 0.438887 -0.502681
v -0.668535 0.657374 -0.069760
v -0.695161 0.652346 0.268137
v -0.588146 0.985442 0.294263
v -0.601199 1.013884 -0.038618
v -1.028323 0.668516 0.087576
v -0.141336 -0.112673 0.568242
v 0.000000 -0.202477 0.789242
v -0.301017 0.318359 0.681017
v -0.172226 0.195248 0.760739
v -0.178644 0.133840 0.774333
v -0.436921 0.132387 0.679044
v -0.437557 0.197400 0.661900
v -0.205712 0.275245 0.727531
v -0.401844 0.270410 0.656140
v -0.314447 0.224297 0.731736
v -0.188759 0.254251 0.661663
v -0.394308 0.185235 0.603476
v -0.393744 0.127596 0.618676
v -0.164762 0.128884 0.703156
v -0.159072 0.183327 0.691105
v -0.273255 0.292475 0.620425
v -0.362646 0.249964 0.598370
v -0.264017 0.198349 0.600526
vt 0.830037 0.727127
vt 0.452100 0.995066
vt 0.565844 0.779470
vt 0.636537 0.689130
vt 0.558174 0.664194
vt 0.852125 0.100173
vt 0.851907 0.128585
vt 0.813586 0.118801
vt 0.821768 0.153368
vt 0.782120 0.141387
vt 0.839914 0.083674
vt 0.773459 0.093379
vt 0.768949 0.111543
vt 0.902146 0.092663
vt 0.890216 0.159344
vt 0.823790 0.196645
vt 0.758518 0.169379
vt 0.736099 0.072889
vt 0.869401 0.034344
vt 0.728181 0.118676
vt 0.781342 0.231349
vt 0.951823 0.171619
vt 0.707382 0.198336
vt 0.793603 0.008380
vt 0.963950 0.062783
vt 0.874185 0.230013
vt 0.658955 0.118717
vt 0.636537 0.689130
vt 0.565844 0.779470
vt 0.558174 0.664194
vt 0.852125 0.100173
vt 0.813586 0.118801
vt 0.851907 0.128585
vt 0.821768 0.153368
vt 0.782120 0.141387
vt 0.839914 0.083674
vt 0.773459 0.093379
vt 0.768949 0.111543
vt 0.890216 0.159344
vt 0.902146 0.092663
vt 0.758518 0.169379
vt 0.823790 0.196645
vt 0.869401 0.034344
vt 0.736099 0.072889
vt 0.728181 0.118676
vt 0.781342 0.231349
vt 0.951823 0.171619
vt 0.707382 0.198336
vt 0.793603 0.008380
vt 0.963950 0.062783
vt 0.874185 0.230013
vt 0.658955 0.118717
vt 0.029630 0.514167
vt 0.241194 0.489928
vt 0.204819 0.660043
vt 0.075518 0.634656
vt 0.348453 0.610892
vt 0.152697 0.831234
vt 0.159204 0.767422
vt 0.459907 0.423400
vt 0.555405 0.438884
vt 0.855210 0.512000
vt 0.814161 0.331586
vt 0.337310 0.136069
vt 0.087418 0.353449
vt 0.609979 0.134859
vt 0.436865 0.685254
vt 0.597950 0.545269
vt 0.073357 0.743714
vt 0.119010 0.709296
vt 0.029398 0.637919
vt 0.075518 0.634656
vt 0.204819 0.660043
vt 0.241194 0.489928
vt 0.348453 0.610892
vt 0.159204 0.767422
vt 0.459907 0.423400
vt 0.555405 0.438884
vt 0.436865 0.685254
vt 0.597950 0.545269
vt 0.119010 0.709296
vn -0.5408 0.8298 0.1375
vn 0.6097 0.7874 0.0912
vn 0.5194 0.3167 0.7937
vn 0.1952 0.4869 0.8513
vn 0.3447 -0.0770 0.9355
vn 0.1216 0.3367 0.9337
vn 0.4176 0.4767 0.7735
vn 0.5169 0.2135 0.8290
vn 0.1495 0.2286 0.9620
vn 0.7321 0.3102 -0.6065
vn -0.4694 0.8691 -0.1562
vn 0.0187 -0.9977 0.0658
vn -0.9027 0.4189 0.0988
vn 0.2765 0.8315 -0.4819
vn 0.8091 -0.1572 -0.5662
vn -0.9790 -0.0591 0.1951
vn -0.5078 0.2256 -0.8314
vn 0.0154 -0.0711 -0.9973
vn -0.6492 -0.0435 -0.7594
vn -0.2627 -0.6618 -0.7021
vn -0.0038 -0.2549 -0.9669
vn -0.1350 0.2176 -0.9667
vn -0.6165 -0.2310 -0.7527
vn 0.5408 0.8298 0.1375
vn -0.6097 0.7874 0.0912
vn -0.5194 0.3167 0.7937
vn -0.1952 0.4869 0.8513
vn -0.3447 -0.0770 0.9355
vn -0.1216 0.3367 0.9337
vn -0.4176 0.4767 0.7735
vn -0.5169 0.2135 0.8290
vn -0.1495 0.2286 0.9620
vn -0.7321 0.3102 -0.6065
vn 0.4694 0.8691 -0.1562
vn -0.0187 -0.9977 0.0658
vn 0.9027 0.4189 0.0988
vn -0.2765 0.8315 -0.4819
vn -0.8091 -0.1572 -0.5662
vn 0.9790 -0.0591 0.1951
vn 0.5078 0.2256 -0.8314
vn -0.0154 -0.0711 -0.9973
vn 0.6492 -0.0435 -0.7594
vn 0.2627 -0.6618 -0.7021
vn 0.0038 -0.2549 -0.9669
vn 0.1350 0.2176 -0.9667
vn 0.6165 -0.2310 -0.7527
vn 0.0000 -0.5982 0.8013
vn 0.6575 -0.6384 0.4001
vn 0.4737 -0.2473 0.8452
vn 0.2762 0.3400 0.8989
vn 0.8105 0.0548 0.5832
vn 0.0000 0.6435 0.7654
vn 0.0000 -0.0379 0.9993
vn 0.1224 -0.4146 0.9017
vn 0.7939 -0.4589 -0.3988
vn 0.8064 0.1413 -0.5743
vn 0.0000 0.6455 -0.7637
vn 0.0000 0.8685 -0.4956
vn 0.0000 0.1493 -0.9888
vn 0.0000 -0.9566 -0.2912
vn 0.0000 -0.9451 0.3268
vn 0.0000 -0.4960 -0.8683
vn 0.6338 -0.0047 0.7735
vn 0.0951 0.7913 0.6040
vn 0.1177 0.8910 -0.4384
vn 0.6164 0.1093 -0.7798
vn 0.9584 -0.2811 -0.0482
vn 0.0000 0.0706 0.9975
vn -0.2495 0.0734 0.9656
vn 0.0000 0.2163 0.9763
vn -0.2762 0.3400 0.8989
vn -0.4737 -0.2473 0.8452
vn -0.6575 -0.6384 0.4001
vn -0.8105 0.0548 0.5832
vn -0.1224 -0.4146 0.9017
vn -0.7939 -0.4589 -0.3988
vn -0.8064 0.1413 -0.5743
vn -0.0951 0.7913 0.6040
vn -0.6338 -0.0047 0.7735
vn -0.6164 0.1093 -0.7798
vn -0.1177 0.8910 -0.4384
vn -0.9584 -0.2811 -0.0482
vn 0.2495 0.0734 0.9656
usemtl mat_o1
s off
f 38/1/1 37/2/1 10/3/1 11/4/1
f 11/4/2 10/3/2 12/5/2
f 18/6/3 20/7/3 21/8/3
f 14/9/4 19/10/4 21/8/4
f 17/11/5 21/8/5 16/12/5
f 15/13/6 21/8/6 19/10/6
f 20/7/7 14/9/7 21/8/7
f 18/6/8 21/8/8 17/11/8
f 16/12/9 21/8/9 15/13/9
f 20/7/10 18/6/10 23/14/10 28/15/10
f 19/10/11 14/9/11 27/16/11 22/17/11
f 17/11/12 16/12/12 25/18/12 24/19/12
f 15/13/13 19/10/13 22/17/13 26/20/13
f 14/9/14 20/7/14 28/15/14 27/16/14
f 18/6/15 17/11/15 24/19/15 23/14/15
f 16/12/16 15/13/16 26/20/16 25/18/16
f 22/17/17 27/16/17 29/21/17
f 28/15/18 23/14/18 29/22/18
f 26/20/19 22/17/19 29/23/19
f 24/19/20 25/18/20 29/24/20
f 23/14/21 24/19/21 29/25/21
f 27/16/22 28/15/22 29/26/22
f 25/18/23 26/20/23 29/27/23
f 38/1/24 50/28/24 49/29/24 37/2/24
f 50/28/25 51/30/25 49/29/25
f 58/31/26 61/32/26 60/33/26
f 54/34/27 61/32/27 59/35/27
f 57/36/28 56/37/28 61/32/28
f 55/38/29 59/35/29 61/32/29
f 60/33/30 61/32/30 54/34/30
f 58/31/31 57/36/31 61/32/31
f 56/37/32 55/38/32 61/32/32
f 60/33/33 68/39/33 63/40/33 58/31/33
f 59/35/34 62/41/34 67/42/34 54/34/34
f 57/36/35 64/43/35 65/44/35 56/37/35
f 55/38/36 66/45/36 62/41/36 59/35/36
f 54/34/37 67/42/37 68/39/37 60/33/37
f 58/31/38 63/40/38 64/43/38 57/36/38
f 56/37/39 65/44/39 66/45/39 55/38/39
f 62/41/40 69/46/40 67/42/40
f 68/39/41 69/47/41 63/40/41
f 66/45/42 69/48/42 62/41/42
f 64/43/43 69/49/43 65/44/43
f 63/40/44 69/50/44 64/43/44
f 67/42/45 69/51/45 68/39/45
f 65/44/46 69/52/46 66/45/46
s 1
f 43/53/47 1/54/48 3/55/49 7/56/50
f 5/57/51 37/2/52 42/58/53 6/59/54
f 1/54/48 5/57/51 3/55/49
f 2/60/55 4/61/56 5/57/51
f 4/61/56 46/62/57 38/1/58
f 2/60/55 39/63/59 4/61/56
f 30/64/60 1/54/48 40/65/61
f 3/55/49 5/57/51 6/59/54
f 1/54/48 43/53/47 40/65/61
f 39/63/59 46/62/57 4/61/56
f 1/54/48 2/60/55 5/57/51
f 1/54/48 30/64/60 2/60/55
f 30/64/60 32/66/62 2/60/55
f 2/60/55 32/66/62 39/63/59
f 37/2/52 5/57/51 9/67/63 10/3/64
f 4/61/56 38/1/58 11/4/65 8/68/66
f 5/57/51 4/61/56 8/68/66 9/67/63
f 8/68/66 11/4/65 12/5/67
f 9/67/63 8/68/66 12/5/67
f 10/3/64 9/67/63 12/5/67
f 6/59/54 42/58/53 45/69/68 13/70/69
f 6/59/54 13/70/69 3/55/49
f 7/56/50 53/71/70 43/53/47
f 53/71/70 7/56/50 13/70/69 45/69/68
f 7/56/50 3/55/49 13/70/69
f 43/53/47 44/72/71 34/73/72 31/74/73
f 36/75/74 41/76/75 42/58/53 37/2/52
f 31/74/73 34/73/72 36/75/74
f 33/77/76 36/75/74 35/78/77
f 35/78/77 38/1/58 46/62/57
f 33/77/76 35/78/77 39/63/59
f 30/64/60 40/65/61 31/74/73
f 34/73/72 41/76/75 36/75/74
f 31/74/73 40/65/61 43/53/47
f 39/63/59 35/78/77 46/62/57
f 31/74/73 36/75/74 33/77/76
f 31/74/73 33/77/76 30/64/60
f 30/64/60 33/77/76 32/66/62
f 33/77/76 39/63/59 32/66/62
f 37/2/52 49/29/78 48/79/79 36/75/74
f 35/78/77 47/80/80 50/28/81 38/1/58
f 36/75/74 48/79/79 47/80/80 35/78/77
f 47/80/80 51/30/82 50/28/81
f 48/79/79 51/30/82 47/80/80
f 49/29/78 51/30/82 48/79/79
f 41/76/75 52/81/83 45/69/68 42/58/53
f 41/76/75 34/73/72 52/81/83
f 44/72/71 43/53/47 53/71/70
f 53/71/70 45/69/68 52/81/83 44/72/71
f 44/72/71 52/81/83 34/73/72
