# Blender (sub 0) OBJ File: 'o10.blend'
# www.blender.org
mtllib o10.mtl
o Icosphere.001
v 0.150345 0.219766 0.684968
v 0.192753 -0.069614 0.724846
v 0.401870 0.210673 0.565707
v 0.364131 0.045074 0.573802
v 0.266702 0.274844 0.616959
v 0.272021 0.138585 0.539760
v 0.495006 -0.393426 0.538114
v 0.636015 -0.493878 -0.144772
v 0.092252 -0.257068 0.741697
v 0.486176 0.564697 -0.524134
v 0.597248 0.273233 0.298639
v 0.777741 0.499686 -0.417008
v 0.091511 -0.176171 0.738771
v 0.118358 -0.205945 0.601066
v 0.260685 0.143066 0.682013
v -0.150345 0.219766 0.684968
v -0.192753 -0.069614 0.724846
v -0.401870 0.210673 0.565707
v -0.364131 0.045074 0.573802
v -0.266702 0.274844 0.616959
v -0.272021 0.138585 0.539760
v 0.000000 -0.849417 -0.100413
v -0.495006 -0.393426 0.538114
v 0.000000 -0.621303 -0.666554
v -0.636015 -0.493878 -0.144772
v -0.092252 -0.257068 0.741697
v -0.486176 0.564697 -0.524134
v -0.597248 0.273233 0.298639
v 0.000000 0.473472 0.564839
v 0.000000 0.684754 0.011353
v -0.777741 0.499686 -0.417008
v 0.000000 0.075546 -0.839882
v 0.000000 -0.813940 0.485932
v -0.091511 -0.176171 0.738771
v 0.000000 -0.143006 0.754499
v -0.118358 -0.205945 0.601066
v 0.000000 -0.442292 0.764695
v 0.000000 -0.308258 0.759934
v 0.000000 -0.247300 0.632168
v 0.000000 0.606200 -0.468371
v -0.260685 0.143066 0.682013
vt 0.777891 0.201139
vt 0.780919 0.147771
vt 0.842235 0.215373
vt 0.721323 0.180182
vt 0.775532 0.265874
vt 0.769397 0.039768
vt 0.643078 0.112230
vt 0.863584 0.130465
vt 0.911814 0.180948
vt 0.911814 0.080612
vt 0.062708 0.612353
vt 0.280414 0.588650
vt 0.118648 0.693418
vt 0.070895 0.670818
vt 0.428007 0.725187
vt 0.360713 0.947919
vt 0.117162 0.775427
vt 0.129950 0.733262
vt 0.627424 0.667214
vt 0.544405 0.647084
vt 0.624935 0.914931
vt 0.756731 0.752833
vt 0.456458 0.495332
vt 0.654479 0.242563
vt 0.776985 0.490862
vt 0.342102 0.230360
vt 0.119265 0.392731
vt 0.100219 0.724193
vt 0.062708 0.734798
vt 0.777891 0.201139
vt 0.842235 0.215373
vt 0.780919 0.147771
vt 0.721323 0.180182
vt 0.775532 0.265874
vt 0.769397 0.039768
vt 0.643078 0.112230
vt 0.911814 0.180948
vt 0.863584 0.130465
vt 0.911814 0.080612
vt 0.118648 0.693418
vt 0.280414 0.588650
vt 0.428007 0.725187
vt 0.129950 0.733262
vt 0.627424 0.667214
vt 0.544405 0.647084
vt 0.456458 0.495332
vt 0.100219 0.724193
vn -0.0164 0.9998 -0.0044
vn 0.4414 0.1488 0.8849
vn 0.8587 0.4496 -0.2457
vn -0.7735 0.5159 0.3682
vn -0.3459 -0.0368 -0.9375
vn -0.3069 -0.8483 0.4316
vn 0.6972 -0.6542 -0.2931
vn 0.0000 -0.3524 0.9358
vn 0.7407 -0.3252 0.5878
vn 0.0147 0.4330 0.9013
vn 0.0000 0.3613 0.9324
vn 0.7648 0.4160 0.4919
vn 0.0000 0.6999 0.7142
vn 0.0000 -0.2430 0.9700
vn 0.2181 -0.1639 0.9621
vn 0.4297 0.6809 -0.5930
vn 0.7662 0.5078 -0.3937
vn 0.0000 0.9825 0.1861
vn 0.0000 0.8647 -0.5023
vn 0.8314 -0.5192 -0.1981
vn 0.0000 -0.5994 -0.8004
vn 0.0000 0.0061 -1.0000
vn 0.0000 -0.9958 -0.0909
vn 0.0000 -0.9173 0.3982
vn -0.6413 -0.1286 0.7564
vn 0.0000 0.2557 0.9668
vn 0.0164 0.9998 -0.0044
vn -0.8587 0.4496 -0.2457
vn -0.4414 0.1488 0.8849
vn 0.7735 0.5159 0.3682
vn 0.3459 -0.0368 -0.9375
vn 0.3069 -0.8483 0.4316
vn -0.6972 -0.6542 -0.2931
vn -0.0147 0.4330 0.9013
vn -0.7407 -0.3252 0.5878
vn -0.7648 0.4160 0.4919
vn -0.2181 -0.1639 0.9621
vn -0.4297 0.6809 -0.5930
vn -0.7662 0.5078 -0.3937
vn -0.8314 -0.5192 -0.1981
vn 0.6413 -0.1286 0.7564
usemtl mat_o1
s 1
f 5/1/1 15/2/2 3/3/3
f 1/4/4 5/1/1 6/5/5
f 2/6/6 1/4/4 6/7/5
f 5/1/1 3/3/3 6/5/5
f 3/3/3 4/8/7 6/9/5
f 4/8/7 2/6/6 6/10/5
f 37/11/8 7/12/9 9/13/10 38/14/11
f 11/15/12 29/16/13 35/17/14 13/18/15
f 10/19/16 11/15/12 12/20/17
f 7/12/9 11/15/12 13/18/15 9/13/10
f 10/19/16 30/21/18 29/16/13 11/15/12
f 10/19/16 40/22/19 30/21/18
f 8/23/20 10/19/16 12/20/17
f 11/15/12 8/23/20 12/20/17
f 10/19/16 24/24/21 32/25/22
f 22/26/23 7/12/9 33/27/24
f 9/13/10 13/18/15 14/28/25
f 7/12/9 37/11/8 33/27/24
f 38/14/11 9/13/10 14/28/25 39/29/26
f 13/18/15 35/17/14 39/29/26 14/28/25
f 32/25/22 40/22/19 10/19/16
f 5/1/1 1/4/4 15/2/2
f 2/6/6 15/2/2 1/4/4
f 4/8/7 15/2/2 2/6/6
f 3/3/3 15/2/2 4/8/7
f 7/12/9 8/23/20 11/15/12
f 7/12/9 22/26/23 8/23/20
f 22/26/23 24/24/21 8/23/20
f 8/23/20 24/24/21 10/19/16
f 20/30/27 18/31/28 41/32/29
f 16/33/30 21/34/31 20/30/27
f 17/35/32 21/36/31 16/33/30
f 20/30/27 21/34/31 18/31/28
f 18/31/28 21/37/31 19/38/33
f 19/38/33 21/39/31 17/35/32
f 37/11/8 38/14/11 26/40/34 23/41/35
f 28/42/36 34/43/37 35/17/14 29/16/13
f 27/44/38 31/45/39 28/42/36
f 23/41/35 26/40/34 34/43/37 28/42/36
f 27/44/38 28/42/36 29/16/13 30/21/18
f 27/44/38 30/21/18 40/22/19
f 25/46/40 31/45/39 27/44/38
f 28/42/36 31/45/39 25/46/40
f 27/44/38 32/25/22 24/24/21
f 22/26/23 33/27/24 23/41/35
f 26/40/34 36/47/41 34/43/37
f 23/41/35 33/27/24 37/11/8
f 38/14/11 39/29/26 36/47/41 26/40/34
f 34/43/37 36/47/41 39/29/26 35/17/14
f 32/25/22 27/44/38 40/22/19
f 20/30/27 41/32/29 16/33/30
f 17/35/32 16/33/30 41/32/29
f 19/38/33 17/35/32 41/32/29
f 18/31/28 19/38/33 41/32/29
f 23/41/35 28/42/36 25/46/40
f 23/41/35 25/46/40 22/26/23
f 22/26/23 25/46/40 24/24/21
f 25/46/40 27/44/38 24/24/21
