# Blender (sub 0) OBJ File: 'o11.blend'
# www.blender.org
mtllib o11.mtl
o Icosphere.001
v 0.467467 -0.372360 0.424620
v 0.557814 -0.150197 -0.364181
v 0.352133 -0.086504 0.600554
v 0.757674 0.293421 -0.419983
v 0.712023 0.288758 0.419005
v 0.132818 -0.045782 0.763192
v 0.178466 -0.167170 0.743831
v 0.669584 0.783474 -0.179665
v 0.694843 0.821774 0.238633
v 0.411905 0.811926 0.259774
v 0.377168 0.809683 -0.154465
v 0.282406 1.247567 0.087576
v 0.141336 -0.112673 0.568242
v 0.412315 0.395707 0.563988
v 0.173337 0.223465 0.694998
v 0.240115 0.144026 0.696552
v 0.370406 0.137299 0.646090
v 0.428969 0.215838 0.594140
v 0.179994 0.340862 0.648124
v 0.451638 0.299395 0.559562
v 0.320393 0.274168 0.672997
v 0.270227 0.236412 0.555939
v 0.000000 -0.586262 0.006207
v -0.467467 -0.372360 0.424620
v 0.000000 -0.282963 -0.504796
v -0.557814 -0.150197 -0.364181
v -0.352133 -0.086504 0.600554
v -0.757674 0.293421 -0.419983
v -0.712023 0.288758 0.419005
v 0.000000 0.539962 0.457108
v 0.000000 0.681640 -0.185675
v 0.000000 0.149515 -0.593318
v 0.000000 -0.642715 0.413084
v -0.132818 -0.045782 0.763192
v 0.000000 0.032831 0.771755
v 0.000000 -0.442292 0.641667
v -0.178466 -0.167170 0.743831
v 0.000000 -0.109719 0.568242
v 0.000000 0.531953 -0.475822
v -0.669584 0.783474 -0.179665
v -0.694843 0.821774 0.238633
v -0.411905 0.811926 0.259774
v -0.377168 0.809683 -0.154465
v -0.282406 1.247567 0.087576
v -0.141336 -0.112673 0.568242
v 0.000000 -0.202477 0.789242
v -0.412315 0.395707 0.563988
v -0.173337 0.223465 0.694998
v -0.240115 0.144026 0.696552
v -0.370406 0.137299 0.646090
v -0.428969 0.215838 0.594140
v -0.179994 0.340862 0.648124
v -0.451638 0.299395 0.559562
v -0.320393 0.274168 0.672997
v -0.270227 0.236412 0.555939
vt 0.754050 0.797559
vt 0.380621 0.960511
vt 0.512862 0.746949
vt 0.605812 0.704069
vt 0.548116 0.703425
vt 0.884557 0.149803
vt 0.864018 0.192790
vt 0.804306 0.141757
vt 0.832269 0.242761
vt 0.715034 0.142391
vt 0.849957 0.105144
vt 0.800795 0.055559
vt 0.759773 0.092989
vt 0.909754 0.049820
vt 0.960635 0.219234
vt 0.702019 0.242761
vt 0.694430 0.035772
vt 0.605812 0.704069
vt 0.512862 0.746949
vt 0.548116 0.703425
vt 0.884557 0.149803
vt 0.804306 0.141757
vt 0.864018 0.192790
vt 0.832269 0.242761
vt 0.715034 0.142391
vt 0.849957 0.105144
vt 0.800795 0.055559
vt 0.759773 0.092989
vt 0.909754 0.049820
vt 0.960635 0.219234
vt 0.702019 0.242761
vt 0.694430 0.035772
vt 0.087607 0.393264
vt 0.294743 0.466927
vt 0.227572 0.595557
vt 0.130759 0.548777
vt 0.421262 0.637873
vt 0.126194 0.744715
vt 0.160023 0.684563
vt 0.552526 0.456266
vt 0.582077 0.566915
vt 0.819902 0.659961
vt 0.819902 0.459586
vt 0.385793 0.183295
vt 0.179577 0.264539
vt 0.686712 0.268469
vt 0.511324 0.688806
vt 0.570037 0.648582
vt 0.073537 0.640348
vt 0.134024 0.619254
vt 0.050053 0.531161
vt 0.130759 0.548777
vt 0.227572 0.595557
vt 0.294743 0.466927
vt 0.421262 0.637873
vt 0.160023 0.684563
vt 0.552526 0.456266
vt 0.582077 0.566915
vt 0.511324 0.688806
vt 0.570037 0.648582
vt 0.134024 0.619254
vn -0.4259 0.8951 0.1321
vn -0.9637 -0.2540 0.0822
vn 0.6311 0.1442 0.7622
vn 0.1444 0.5979 0.7884
vn 0.3583 -0.0523 0.9321
vn 0.0113 0.3702 0.9289
vn 0.6144 0.2160 0.7589
vn 0.6098 0.0676 0.7896
vn 0.1094 0.1113 0.9877
vn -0.2605 -0.7804 -0.5685
vn 0.1114 -0.6047 -0.7886
vn 0.1618 -0.4145 -0.8956
vn -0.3937 0.3932 -0.8309
vn -0.7984 -0.1837 -0.5734
vn 0.0035 0.0473 -0.9989
vn -0.6544 -0.5600 -0.5081
vn 0.4259 0.8951 0.1321
vn 0.9637 -0.2540 0.0822
vn -0.6311 0.1442 0.7622
vn -0.1444 0.5979 0.7884
vn -0.3583 -0.0523 0.9321
vn -0.0113 0.3702 0.9289
vn -0.6144 0.2160 0.7589
vn -0.6098 0.0676 0.7896
vn -0.1094 0.1113 0.9877
vn 0.2605 -0.7804 -0.5685
vn -0.1114 -0.6047 -0.7886
vn -0.1618 -0.4145 -0.8956
vn 0.3937 0.3932 -0.8309
vn 0.7984 -0.1837 -0.5734
vn -0.0035 0.0473 -0.9989
vn 0.6544 -0.5600 -0.5081
vn 0.0000 -0.6262 0.7796
vn 0.7115 -0.6190 0.3325
vn 0.5206 -0.2455 0.8177
vn 0.3090 0.3214 0.8951
vn 0.8096 0.0630 0.5836
vn 0.0000 0.6781 0.7349
vn 0.0000 -0.0362 0.9993
vn 0.1244 -0.4064 0.9051
vn 0.6520 -0.5455 -0.5266
vn 0.7747 0.0371 -0.6312
vn 0.0000 0.6731 -0.7396
vn 0.0000 0.9309 -0.3653
vn 0.0000 0.0103 -0.9999
vn 0.0000 -0.9603 -0.2788
vn 0.0000 -0.9679 0.2514
vn 0.0000 -0.5882 -0.8087
vn 0.7240 0.4711 0.5039
vn -0.2730 0.5456 0.7923
vn -0.3705 0.6132 -0.6976
vn 0.6460 0.4988 -0.5777
vn -0.4644 0.8828 0.0700
vn 0.0000 0.0782 0.9969
vn -0.2485 0.0806 0.9653
vn 0.0000 0.2163 0.9763
vn -0.3090 0.3214 0.8951
vn -0.5206 -0.2455 0.8177
vn -0.7115 -0.6190 0.3325
vn -0.8096 0.0630 0.5836
vn -0.1244 -0.4064 0.9051
vn -0.6520 -0.5455 -0.5266
vn -0.7747 0.0371 -0.6312
vn 0.2730 0.5456 0.7923
vn -0.7240 0.4711 0.5039
vn -0.6460 0.4988 -0.5777
vn 0.3705 0.6132 -0.6976
vn 0.4644 0.8828 0.0700
vn 0.2485 0.0806 0.9653
usemtl mat_o1
s off
f 31/1/1 30/2/1 10/3/1 11/4/1
f 11/4/2 10/3/2 12/5/2
f 18/6/3 20/7/3 21/8/3
f 14/9/4 19/10/4 21/8/4
f 17/11/5 21/8/5 16/12/5
f 15/13/6 21/8/6 19/10/6
f 20/7/7 14/9/7 21/8/7
f 18/6/8 21/8/8 17/11/8
f 16/12/9 21/8/9 15/13/9
f 17/11/10 16/12/10 22/14/10
f 18/6/11 17/11/11 22/14/11
f 20/7/12 18/6/12 22/15/12
f 19/10/13 14/9/13 22/16/13
f 15/13/14 19/10/14 22/17/14
f 14/9/15 20/7/15 22/15/15
f 16/12/16 15/13/16 22/17/16
f 31/1/17 43/18/17 42/19/17 30/2/17
f 43/18/18 44/20/18 42/19/18
f 51/21/19 54/22/19 53/23/19
f 47/24/20 54/22/20 52/25/20
f 50/26/21 49/27/21 54/22/21
f 48/28/22 52/25/22 54/22/22
f 53/23/23 54/22/23 47/24/23
f 51/21/24 50/26/24 54/22/24
f 49/27/25 48/28/25 54/22/25
f 50/26/26 55/29/26 49/27/26
f 51/21/27 55/29/27 50/26/27
f 53/23/28 55/30/28 51/21/28
f 52/25/29 55/31/29 47/24/29
f 48/28/30 55/32/30 52/25/30
f 47/24/31 55/30/31 53/23/31
f 49/27/32 55/32/32 48/28/32
s 1
f 36/33/33 1/34/34 3/35/35 7/36/36
f 5/37/37 30/2/38 35/38/39 6/39/40
f 1/34/34 5/37/37 3/35/35
f 2/40/41 4/41/42 5/37/37
f 4/41/42 39/42/43 31/1/44
f 2/40/41 32/43/45 4/41/42
f 23/44/46 1/34/34 33/45/47
f 3/35/35 5/37/37 6/39/40
f 1/34/34 36/33/33 33/45/47
f 32/43/45 39/42/43 4/41/42
f 1/34/34 2/40/41 5/37/37
f 1/34/34 23/44/46 2/40/41
f 23/44/46 25/46/48 2/40/41
f 2/40/41 25/46/48 32/43/45
f 30/2/38 5/37/37 9/47/49 10/3/50
f 4/41/42 31/1/44 11/4/51 8/48/52
f 5/37/37 4/41/42 8/48/52 9/47/49
f 8/48/52 11/4/51 12/5/53
f 9/47/49 8/48/52 12/5/53
f 10/3/50 9/47/49 12/5/53
f 6/39/40 35/38/39 38/49/54 13/50/55
f 6/39/40 13/50/55 3/35/35
f 7/36/36 46/51/56 36/33/33
f 46/51/56 7/36/36 13/50/55 38/49/54
f 7/36/36 3/35/35 13/50/55
f 36/33/33 37/52/57 27/53/58 24/54/59
f 29/55/60 34/56/61 35/38/39 30/2/38
f 24/54/59 27/53/58 29/55/60
f 26/57/62 29/55/60 28/58/63
f 28/58/63 31/1/44 39/42/43
f 26/57/62 28/58/63 32/43/45
f 23/44/46 33/45/47 24/54/59
f 27/53/58 34/56/61 29/55/60
f 24/54/59 33/45/47 36/33/33
f 32/43/45 28/58/63 39/42/43
f 24/54/59 29/55/60 26/57/62
f 24/54/59 26/57/62 23/44/46
f 23/44/46 26/57/62 25/46/48
f 26/57/62 32/43/45 25/46/48
f 30/2/38 42/19/64 41/59/65 29/55/60
f 28/58/63 40/60/66 43/18/67 31/1/44
f 29/55/60 41/59/65 40/60/66 28/58/63
f 40/60/66 44/20/68 43/18/67
f 41/59/65 44/20/68 40/60/66
f 42/19/64 44/20/68 41/59/65
f 34/56/61 45/61/69 38/49/54 35/38/39
f 34/56/61 27/53/58 45/61/69
f 37/52/57 36/33/33 46/51/56
f 46/51/56 38/49/54 45/61/69 37/52/57
f 37/52/57 45/61/69 27/53/58
