# Blender (sub 0) OBJ File: 'o12.blend'
# www.blender.org
mtllib o12.mtl
o Icosphere.001
v 0.498253 -0.502681 0.424620
v 0.770972 -0.275762 -0.219308
v 0.234194 -0.108662 0.710200
v 0.783004 0.135168 -0.166149
v 0.752148 0.087007 0.438913
v 0.164654 -0.178876 0.744839
v 0.809485 0.761884 0.253598
v 0.130185 -0.116997 0.514194
v 0.293241 -0.016132 0.738128
v 0.217857 0.123598 0.738128
v 0.167253 0.009788 0.738128
v 0.299152 0.202437 0.738128
v 0.469902 0.048846 0.738128
v 0.389113 0.230013 0.738128
v 0.379598 -0.004770 0.738128
v 0.339375 0.098833 0.792243
v 0.511497 0.187879 0.738128
v 0.340205 0.100972 0.610091
v 0.000000 -0.622363 -0.221827
v -0.498253 -0.502681 0.424620
v 0.000000 -0.404004 -0.561783
v -0.770972 -0.275762 -0.219308
v -0.234194 -0.108662 0.710200
v -0.783004 0.135168 -0.166149
v -0.752148 0.087007 0.438913
v 0.000000 0.406096 0.574894
v 0.000000 0.544661 -0.226147
v 0.000000 0.099781 -0.648533
v 0.000000 -0.619885 0.372612
v 0.000000 -0.010509 0.749914
v 0.000000 -0.433904 0.649681
v -0.164654 -0.178876 0.744839
v 0.000000 -0.114043 0.514194
v 0.000000 0.398415 -0.493342
v -0.809485 0.761884 0.253598
v -0.130185 -0.116997 0.514194
v 0.000000 -0.208905 0.753036
v -0.293241 -0.016132 0.738128
v -0.217857 0.123598 0.738128
v -0.167253 0.009788 0.738128
v -0.299152 0.202437 0.738128
v -0.469902 0.048846 0.738128
v -0.389113 0.230013 0.738128
v -0.379598 -0.004770 0.738128
v -0.339375 0.098833 0.792243
v -0.511497 0.187879 0.738128
v -0.340205 0.100972 0.610091
vt 0.743283 0.960868
vt 0.259521 0.939576
vt 0.500408 0.769154
vt 0.916439 0.137832
vt 0.883159 0.198717
vt 0.833947 0.138197
vt 0.889475 0.082937
vt 0.842556 0.055483
vt 0.784682 0.077807
vt 0.757272 0.056926
vt 0.778112 0.193894
vt 0.825322 0.220879
vt 0.746655 0.225765
vt 0.751006 0.139265
vt 0.908992 0.219831
vt 0.931416 0.056947
vt 0.500408 0.769154
vt 0.916439 0.137832
vt 0.889475 0.082937
vt 0.833947 0.138197
vt 0.883159 0.198717
vt 0.842556 0.055483
vt 0.757272 0.056926
vt 0.784682 0.077807
vt 0.778112 0.193894
vt 0.746655 0.225765
vt 0.825322 0.220879
vt 0.751006 0.139265
vt 0.908992 0.219831
vt 0.931416 0.056947
vt 0.394770 0.466917
vt 0.175839 0.619165
vt 0.164321 0.536695
vt 0.431589 0.660670
vt 0.101033 0.714290
vt 0.586659 0.554963
vt 0.573224 0.664403
vt 0.860382 0.852596
vt 0.936325 0.646590
vt 0.679188 0.214441
vt 0.342093 0.241206
vt 0.173942 0.348831
vt 0.863478 0.358194
vt 0.033302 0.605433
vt 0.092117 0.586857
vt 0.087942 0.471672
vt 0.394770 0.466917
vt 0.164321 0.536695
vt 0.175839 0.619165
vt 0.431589 0.660670
vt 0.586659 0.554963
vt 0.573224 0.664403
vt 0.092117 0.586857
vn -0.3432 0.9255 0.1601
vn 0.3052 -0.2089 0.9291
vn -0.1447 -0.7031 -0.6962
vn -0.2231 0.7279 -0.6484
vn -0.3532 0.2418 0.9038
vn 0.0256 0.3729 0.9275
vn -0.0285 -0.4163 0.9088
vn -0.5457 0.5627 -0.6209
vn 0.6486 -0.1940 -0.7360
vn 0.0990 -0.7521 -0.6516
vn -0.6641 0.2953 -0.6868
vn 0.3857 -0.6496 -0.6552
vn 0.2215 0.6433 -0.7329
vn 0.3432 0.9255 0.1601
vn -0.3052 -0.2089 0.9291
vn 0.1447 -0.7031 -0.6962
vn 0.2231 0.7279 -0.6484
vn 0.3532 0.2418 0.9038
vn -0.0256 0.3729 0.9275
vn 0.0285 -0.4163 0.9088
vn 0.5457 0.5627 -0.6209
vn -0.6486 -0.1940 -0.7360
vn -0.0990 -0.7521 -0.6516
vn 0.6641 0.2953 -0.6868
vn -0.3857 -0.6496 -0.6552
vn -0.2215 0.6433 -0.7329
vn 0.5549 -0.7185 0.4192
vn 0.2014 0.0459 0.9784
vn 0.1160 0.2741 0.9546
vn 0.7882 -0.0332 0.6145
vn 0.0000 0.6454 0.7638
vn 0.0000 -0.2352 0.9719
vn 0.8009 -0.4230 -0.4237
vn 0.8348 0.2146 -0.5069
vn 0.0000 0.6940 -0.7199
vn 0.0000 0.9200 -0.3919
vn 0.0000 0.1673 -0.9859
vn 0.0000 -0.9523 -0.3051
vn 0.0000 -0.9640 0.2657
vn 0.0000 -0.6384 0.7696
vn 0.0000 -0.5344 -0.8452
vn 0.6004 0.7851 0.1521
vn 0.0000 0.0081 0.9999
vn -0.5589 0.0296 0.8287
vn 0.0000 0.3144 0.9493
vn -0.5549 -0.7185 0.4192
vn -0.1160 0.2741 0.9546
vn -0.2014 0.0459 0.9784
vn -0.7882 -0.0332 0.6145
vn -0.8009 -0.4230 -0.4237
vn -0.8348 0.2146 -0.5069
vn -0.6004 0.7851 0.1521
vn 0.5589 0.0296 0.8287
usemtl mat_o1
s off
f 27/1/1 26/2/1 7/3/1
f 13/4/2 17/5/2 16/6/2 15/7/2
f 9/8/3 11/9/3 18/10/3
f 12/11/4 14/12/4 18/13/4
f 16/6/5 12/11/5 10/14/5 11/9/5
f 17/5/6 14/12/6 12/11/6 16/6/6
f 15/7/7 16/6/7 11/9/7 9/8/7
f 10/14/8 12/11/8 18/13/8
f 17/5/9 13/4/9 18/15/9
f 15/7/10 9/8/10 18/16/10
f 11/9/11 10/14/11 18/10/11
f 13/4/12 15/7/12 18/16/12
f 14/12/13 17/5/13 18/15/13
f 27/1/14 35/17/14 26/2/14
f 42/18/15 44/19/15 45/20/15 46/21/15
f 38/22/16 47/23/16 40/24/16
f 41/25/17 47/26/17 43/27/17
f 45/20/18 40/24/18 39/28/18 41/25/18
f 46/21/19 45/20/19 41/25/19 43/27/19
f 44/19/20 38/22/20 40/24/20 45/20/20
f 39/28/21 47/26/21 41/25/21
f 46/21/22 47/29/22 42/18/22
f 44/19/23 47/30/23 38/22/23
f 40/24/24 47/23/24 39/28/24
f 42/18/25 47/30/25 44/19/25
f 43/27/26 47/29/26 46/21/26
s 1
f 1/31/27 3/32/28 6/33/29
f 5/34/30 26/2/31 30/35/32 3/32/28
f 1/31/27 5/34/30 3/32/28
f 2/36/33 4/37/34 5/34/30
f 4/37/34 34/38/35 27/1/36
f 2/36/33 28/39/37 4/37/34
f 19/40/38 1/31/27 29/41/39
f 1/31/27 31/42/40 29/41/39
f 28/39/37 34/38/35 4/37/34
f 1/31/27 2/36/33 5/34/30
f 1/31/27 19/40/38 2/36/33
f 19/40/38 21/43/41 2/36/33
f 2/36/33 21/43/41 28/39/37
f 26/2/31 5/34/30 7/3/42
f 4/37/34 27/1/36 7/3/42
f 5/34/30 4/37/34 7/3/42
f 3/32/28 30/35/32 33/44/43 8/45/44
f 6/33/29 37/46/45 31/42/40
f 37/46/45 6/33/29 8/45/44 33/44/43
f 6/33/29 3/32/28 8/45/44
f 31/42/40 1/31/27 6/33/29
f 20/47/46 32/48/47 23/49/48
f 25/50/49 23/49/48 30/35/32 26/2/31
f 20/47/46 23/49/48 25/50/49
f 22/51/50 25/50/49 24/52/51
f 24/52/51 27/1/36 34/38/35
f 22/51/50 24/52/51 28/39/37
f 19/40/38 29/41/39 20/47/46
f 20/47/46 29/41/39 31/42/40
f 28/39/37 24/52/51 34/38/35
f 20/47/46 25/50/49 22/51/50
f 20/47/46 22/51/50 19/40/38
f 19/40/38 22/51/50 21/43/41
f 22/51/50 28/39/37 21/43/41
f 26/2/31 35/17/52 25/50/49
f 24/52/51 35/17/52 27/1/36
f 25/50/49 35/17/52 24/52/51
f 23/49/48 36/53/53 33/44/43 30/35/32
f 32/48/47 31/42/40 37/46/45
f 37/46/45 33/44/43 36/53/53 32/48/47
f 32/48/47 36/53/53 23/49/48
f 31/42/40 32/48/47 20/47/46
