# Blender (sub 0) OBJ File: 'untitled.blend'
# www.blender.org
mtllib 5.mtl
o Cube
v 0.532118 -0.532118 -0.532118
v 0.532118 -0.532118 0.532118
v -0.532118 -0.532118 0.532339
v -0.532118 -0.532118 -0.532118
v 0.532118 0.532118 -0.532118
v 0.532118 0.532118 0.532118
v -0.532118 0.532118 0.532118
v -0.532118 0.532118 -0.532118
v 0.599392 -0.599392 0.000000
v 0.000000 -0.599392 -0.599392
v 0.599392 0.000000 -0.599392
v -0.000000 -0.315794 0.885797
v 0.599392 0.088698 0.451547
v -0.599392 -0.599392 -0.000000
v -0.599393 0.046263 0.451547
v -0.599392 0.000000 -0.599393
v 0.599392 0.599392 0.000000
v 0.000000 0.599392 -0.599392
v -0.000000 0.599392 0.599393
v -0.599392 0.599392 -0.000000
v 0.000000 0.000000 -0.569094
v -0.596321 0.000000 -0.000000
v -0.000000 0.037482 0.689279
v 0.594908 0.000000 0.000000
v -0.000000 0.600319 0.000000
v 0.000000 -0.589463 -0.000000
v -0.478753 0.323979 0.507342
v -0.494146 0.116797 0.546612
v -0.271571 0.339373 0.546612
v -0.281158 0.126385 0.594535
v 0.481730 0.326956 0.504533
v 0.497594 0.113438 0.545004
v 0.268211 0.342821 0.545004
v 0.278092 0.123318 0.594393
v -0.479742 0.131202 0.616103
v -0.465965 0.311191 0.582476
v -0.285975 0.324968 0.616104
v -0.293946 0.139173 0.658383
v 0.482749 0.128283 0.614495
v 0.468551 0.313777 0.579839
v 0.283056 0.327976 0.614495
v 0.291271 0.136497 0.658068
v -0.000000 -0.221373 0.586218
v -0.000000 -0.522130 0.771494
v -0.527547 0.217945 0.518661
v -0.372718 0.372773 0.518661
v -0.390096 0.080493 0.579314
v -0.235267 0.235322 0.579315
v 0.532016 0.217679 0.516191
v 0.372452 0.377243 0.516191
v 0.390361 0.076024 0.578700
v 0.230797 0.235588 0.578700
v -0.486525 0.220384 0.601869
v -0.375157 0.331751 0.601869
v -0.387657 0.121516 0.645497
v -0.276289 0.232883 0.645497
v 0.489739 0.220192 0.599660
v 0.374966 0.334966 0.599660
v 0.387848 0.118301 0.644622
v 0.273074 0.233074 0.644622
v 0.275093 0.120319 0.629023
v 0.265543 0.346157 0.577462
v 0.484060 0.329287 0.536811
v -0.268982 0.342610 0.579086
v -0.278248 0.123475 0.629116
v -0.481014 0.326241 0.539641
v 0.500930 0.110770 0.577462
v -0.497383 0.114208 0.579085
v -0.527051 0.217974 0.552549
v -0.390066 0.080989 0.612997
v 0.531506 0.217709 0.550082
v 0.390331 0.076534 0.612379
v -0.372748 0.372278 0.552549
v -0.235763 0.235293 0.612997
v 0.372482 0.376732 0.550082
v 0.231308 0.235557 0.612379
v 0.381407 0.226633 0.752487
v -0.381407 0.226633 0.741549
v 0.299696 -0.278482 0.809594
v -0.299696 -0.268290 0.809593
v -0.299696 -0.007339 0.634899
v 0.299696 -0.017530 0.634899
vt 0.184996 0.398750
vt 0.012958 0.338022
vt 0.315268 0.334913
vt 0.471462 0.499872
vt 0.539812 0.444641
vt 0.538095 0.523393
vt 0.379970 0.556895
vt 0.489993 0.585771
vt 0.278345 0.956316
vt 0.436040 0.398048
vt 0.438955 0.460923
vt 0.415628 0.448150
vt 0.405033 0.476423
vt 0.388890 0.441458
vt 0.432402 0.486084
vt 0.421708 0.509784
vt 0.370518 0.493507
vt 0.395532 0.505083
vt 0.371359 0.404599
vt 0.607691 0.023311
vt 0.246357 0.530234
vt 0.145651 0.647169
vt 0.333735 0.511193
vt 0.440336 0.541344
vt 0.330774 0.450211
vt 0.376750 0.466440
vt 0.989234 0.682648
vt 0.633789 0.819482
vt 0.798463 0.352980
vt 0.864689 0.146170
vt 0.887987 0.293786
vt 0.781847 0.225602
vt 0.074717 0.068074
vt 0.022440 0.124420
vt 0.025261 0.066619
vt 0.025536 0.014183
vt 0.022758 0.071087
vt 0.019980 0.127990
vt 0.069851 0.120982
vt 0.066697 0.124564
vt 0.076308 0.020344
vt 0.131084 0.021516
vt 0.079583 0.015167
vt 0.120246 0.073822
vt 0.117262 0.117544
vt 0.124173 0.069530
vt 0.718181 0.116691
vt 0.654516 0.007780
vt 0.310325 0.180666
vt 0.802397 0.035941
vt 0.950279 0.064103
vt 0.972203 0.213037
vt 0.127079 0.026506
vt 0.123073 0.031496
vt 0.116319 0.078114
vt 0.113414 0.121138
vt 0.028081 0.008818
vt 0.022992 0.019548
vt 0.073032 0.025522
vt 0.063542 0.128146
vt 0.109566 0.124731
vt 0.017519 0.131561
vt 0.020255 0.075554
vt 0.473268 0.448050
vt 0.994128 0.361971
vt 0.196606 0.071637
vt 0.152889 0.115417
vt 0.147486 0.068592
vt 0.246863 0.074640
vt 0.245516 0.127963
vt 0.245726 0.074683
vt 0.201065 0.120896
vt 0.199203 0.121690
vt 0.247077 0.022212
vt 0.194009 0.021584
vt 0.195964 0.022384
vt 0.144850 0.022556
vt 0.150166 0.068641
vt 0.155482 0.114725
vt 0.152846 0.068690
vt 0.158075 0.114033
vt 0.147618 0.023347
vt 0.142083 0.021766
vt 0.197918 0.023184
vt 0.248218 0.023021
vt 0.246649 0.127068
vt 0.247782 0.126173
vt 0.202928 0.120103
vt 0.245936 0.021402
vt 0.248000 0.074597
vn -0.3585 -0.4524 0.8166
vn -0.1256 0.9921 0.0015
vn 0.9867 0.1571 -0.0407
vn -0.9922 0.1248 0.0051
vn 0.0501 -0.1190 -0.9916
vn -0.1190 -0.0501 -0.9916
vn 0.1190 -0.0501 -0.9916
vn -0.0501 -0.1190 -0.9916
vn -0.9922 0.0051 -0.1248
vn -0.9860 -0.0956 0.1367
vn -0.9898 0.1406 -0.0211
vn 0.2672 -0.5893 0.7625
vn 0.9867 -0.0893 0.1360
vn 0.9922 0.0074 -0.1245
vn 0.9922 0.1245 0.0074
vn 0.0015 0.9921 0.1256
vn 0.0015 0.9921 -0.1256
vn -0.1256 0.9921 -0.0015
vn -0.1234 -0.9922 0.0164
vn 0.1234 -0.9922 0.0164
vn 0.0204 -0.9960 0.0869
vn 0.2038 0.1546 0.9667
vn -0.1402 0.1267 0.9820
vn 0.1002 -0.3680 0.9244
vn -0.6670 0.2883 0.6871
vn -0.6112 -0.1192 0.7825
vn -0.0529 0.7624 0.6449
vn 0.3023 -0.5712 0.7631
vn 0.7379 0.2956 0.6068
vn -0.4437 -0.7371 0.5097
vn -0.7666 0.0005 0.6421
vn 0.0164 -0.9922 0.1233
vn -0.0204 -0.9960 0.0869
vn -0.0164 -0.9922 0.1234
vn 0.3588 -0.4523 0.8165
vn 0.0745 0.9511 0.2998
vn -0.0423 0.9529 0.3003
vn 0.8981 0.0027 0.4397
vn 0.9456 -0.3016 -0.1220
vn 0.9196 0.3926 0.0135
vn -0.0873 -0.8488 0.5214
vn -0.3670 -0.9235 -0.1118
vn 0.2999 -0.9539 0.0147
vn 0.3957 0.8092 0.4343
vn 0.4078 0.9081 -0.0950
vn -0.3099 0.9507 0.0146
vn -0.7369 0.4001 0.5449
vn -0.9487 0.2969 -0.1085
vn -0.9222 -0.3866 0.0136
vn -0.0346 -0.7062 0.7072
vn 0.2883 -0.6670 0.6871
vn 0.7857 0.2932 0.5446
vn -0.0015 0.9921 0.1256
vn 0.9922 -0.0074 0.1245
vn -0.9922 -0.0051 -0.1248
vn -0.1190 0.0501 -0.9916
vn 0.0501 0.1190 -0.9916
vn -0.0501 0.1190 -0.9916
vn 0.1190 0.0501 -0.9916
vn -0.9922 -0.1248 0.0051
vn -1.0000 0.0051 -0.0073
vn -0.9922 -0.0051 0.1248
vn 0.7667 0.0002 0.6420
vn 0.9999 0.0075 -0.0114
vn 0.9922 -0.1245 0.0074
vn 0.9922 -0.0074 -0.1245
vn 0.1256 0.9921 0.0015
vn 0.1256 0.9921 -0.0015
vn -0.0015 0.9921 -0.1256
vn 0.0164 -0.9922 -0.1234
vn -0.0164 -0.9922 -0.1234
vn 0.5387 -0.0708 0.8395
vn 0.1399 0.1245 0.9823
vn -0.5294 -0.0669 0.8457
vn -0.1988 0.1548 0.9677
vn 0.4912 -0.8029 0.3378
vn 0.0311 0.8160 0.5771
vn -0.8488 -0.0873 0.5214
vn 0.0027 0.8981 0.4397
vn 0.4001 -0.7369 0.5449
vn 0.8092 0.3957 0.4343
vn -0.1125 -0.3676 0.9232
vn -0.2864 -0.5627 0.7755
vn 0.2522 0.8218 0.5109
vn -0.2745 0.7768 0.5668
vn 0.7624 -0.0529 0.6449
vn 0.9507 -0.3099 0.0146
vn 0.9081 0.4078 -0.0950
vn -0.1192 -0.6112 0.7825
vn -0.3866 -0.9222 0.0136
vn 0.2969 -0.9487 -0.1085
vn 0.2956 0.7379 0.6068
vn 0.3926 0.9196 0.0135
vn -0.3016 0.9456 -0.1220
vn -0.5712 0.3023 0.7631
vn -0.9539 0.2999 0.0147
vn -0.9235 -0.3670 -0.1118
vn -0.7062 -0.0346 0.7072
vn 0.8160 0.0311 0.5771
vn 0.2932 0.7857 0.5446
vn -0.1001 0.1001 0.9899
vn -0.5967 0.5967 0.5366
vn -0.7899 0.1460 0.5956
vn 0.9136 0.0197 0.4061
vn 0.3839 0.6766 0.6283
vn 0.6558 0.1104 0.7468
vn -0.0738 0.9540 0.2906
vn -0.1460 0.7899 0.5956
vn 0.6728 -0.6728 0.3075
vn -0.1104 -0.6558 0.7468
vn -0.0197 -0.9136 0.4061
vn -0.7476 -0.6257 0.2227
vn -0.9540 0.0738 0.2906
vn -0.6978 0.6978 0.1615
vn -0.9959 0.0900 0.0041
vn -0.7037 0.7036 -0.0985
vn -0.7573 -0.6433 -0.1122
vn -0.6766 -0.3839 0.6283
vn -0.0003 -1.0000 0.0036
vn 0.7038 -0.7038 -0.0967
vn 0.6257 0.7476 0.2227
vn 0.6433 0.7573 -0.1122
vn -0.0900 0.9959 0.0041
vn 0.5012 -0.5012 0.7053
vn 1.0000 0.0003 0.0036
usemtl Material
s off
f 44/1/1 12/2/1 3/3/1
f 25/4/2 7/5/2 19/6/2
f 24/7/3 6/8/3 13/9/3
f 22/10/4 8/11/4 16/12/4
f 21/13/5 4/14/5 16/12/5
f 21/13/6 8/11/6 18/15/6
f 5/16/7 21/13/7 18/15/7
f 1/17/8 21/13/8 11/18/8
f 22/10/9 4/14/9 14/19/9
f 15/20/10 14/19/10 3/3/10
f 7/5/11 22/10/11 15/20/11
f 2/21/12 79/22/12 12/2/12
f 9/23/13 13/9/13 2/21/13
f 1/17/14 24/7/14 9/23/14
f 5/16/15 24/7/15 11/18/15
f 25/4/16 6/8/16 17/24/16
f 5/16/17 25/4/17 17/24/17
f 8/11/18 25/4/18 18/15/18
f 26/25/19 4/14/19 10/26/19
f 1/17/20 26/25/20 10/26/20
f 2/21/21 44/1/21 26/25/21
f 19/6/22 23/27/22 82/28/22
f 81/29/23 19/6/23 7/5/23
f 43/30/24 82/31/24 23/32/24
f 77/33/25 41/34/25 60/35/25
f 61/36/26 60/35/26 76/37/26
f 62/38/27 58/39/27 75/40/27
f 72/41/28 39/42/28 59/43/28
f 71/44/29 40/45/29 57/46/29
f 43/30/30 81/47/30 15/48/30
f 3/3/31 80/49/31 15/20/31
f 14/19/32 26/25/32 3/3/32
f 26/25/33 44/1/33 3/3/33
f 26/25/34 9/23/34 2/21/34
f 2/21/35 12/2/35 44/1/35
f 43/30/36 80/50/36 12/51/36
f 79/52/37 43/30/37 12/51/37
f 67/53/38 57/46/38 39/42/38
f 32/54/39 71/44/39 67/53/39
f 49/55/40 63/56/40 71/44/40
f 61/36/41 59/43/41 42/57/41
f 34/58/42 72/41/42 61/36/42
f 51/59/43 67/53/43 72/41/43
f 75/40/44 40/45/44 63/56/44
f 50/60/45 63/56/45 31/61/45
f 33/62/46 75/40/46 50/60/46
f 76/37/47 41/34/47 62/38/47
f 52/63/48 62/38/48 33/62/48
f 34/58/49 76/37/49 52/63/49
f 77/33/50 42/57/50 59/43/50
f 39/42/51 77/33/51 59/43/51
f 40/45/52 77/33/52 57/46/52
f 25/4/53 20/64/53 7/5/53
f 24/7/54 17/24/54 6/8/54
f 22/10/55 20/64/55 8/11/55
f 21/13/56 10/26/56 4/14/56
f 21/13/57 16/12/57 8/11/57
f 5/16/58 11/18/58 21/13/58
f 1/17/59 10/26/59 21/13/59
f 22/10/60 16/12/60 4/14/60
f 15/20/61 22/10/61 14/19/61
f 7/5/62 20/64/62 22/10/62
f 2/21/63 13/9/63 79/22/63
f 9/23/64 24/7/64 13/9/64
f 1/17/65 11/18/65 24/7/65
f 5/16/66 17/24/66 24/7/66
f 25/4/67 19/6/67 6/8/67
f 5/16/68 18/15/68 25/4/68
f 8/11/69 20/64/69 25/4/69
f 26/25/70 14/19/70 4/14/70
f 1/17/71 9/23/71 26/25/71
f 82/28/72 13/9/72 6/8/72
f 6/8/73 19/6/73 82/28/73
f 7/5/74 15/20/74 81/29/74
f 81/29/75 23/27/75 19/6/75
f 43/30/76 13/65/76 82/31/76
f 77/33/77 58/39/77 41/34/77
f 61/36/78 42/57/78 60/35/78
f 62/38/79 41/34/79 58/39/79
f 72/41/80 67/53/80 39/42/80
f 71/44/81 63/56/81 40/45/81
f 43/30/82 23/32/82 81/47/82
f 3/3/83 12/2/83 80/49/83
f 43/30/84 15/48/84 80/50/84
f 79/52/85 13/65/85 43/30/85
f 67/53/86 71/44/86 57/46/86
f 32/54/87 49/55/87 71/44/87
f 49/55/88 31/61/88 63/56/88
f 61/36/89 72/41/89 59/43/89
f 34/58/90 51/59/90 72/41/90
f 51/59/91 32/54/91 67/53/91
f 75/40/92 58/39/92 40/45/92
f 50/60/93 75/40/93 63/56/93
f 33/62/94 62/38/94 75/40/94
f 76/37/95 60/35/95 41/34/95
f 52/63/96 76/37/96 62/38/96
f 34/58/97 61/36/97 76/37/97
f 77/33/98 60/35/98 42/57/98
f 39/42/99 57/46/99 77/33/99
f 40/45/100 58/39/100 77/33/100
s 1
f 78/66/101 36/67/102 53/68/103
f 74/69/104 37/70/105 56/71/106
f 73/72/107 36/67/102 54/73/108
f 65/74/109 55/75/110 70/76/111
f 68/77/112 53/68/103 69/78/113
f 69/78/113 36/67/102 66/79/114
f 45/80/115 66/79/114 27/81/116
f 28/82/117 69/78/113 45/80/115
f 70/76/111 35/83/118 68/77/112
f 47/84/119 68/77/112 28/82/117
f 30/85/120 70/76/111 47/84/119
f 64/86/121 54/73/108 37/70/105
f 29/87/122 73/72/107 64/86/121
f 46/88/123 66/79/114 73/72/107
f 65/74/109 56/71/106 38/89/124
f 30/85/120 74/69/104 65/74/109
f 48/90/125 64/86/121 74/69/104
f 78/66/101 35/83/118 55/75/110
f 38/89/124 78/66/101 55/75/110
f 37/70/105 78/66/101 56/71/106
f 78/66/101 54/73/108 36/67/102
f 74/69/104 64/86/121 37/70/105
f 73/72/107 66/79/114 36/67/102
f 65/74/109 38/89/124 55/75/110
f 68/77/112 35/83/118 53/68/103
f 69/78/113 53/68/103 36/67/102
f 45/80/115 69/78/113 66/79/114
f 28/82/117 68/77/112 69/78/113
f 70/76/111 55/75/110 35/83/118
f 47/84/119 70/76/111 68/77/112
f 30/85/120 65/74/109 70/76/111
f 64/86/121 73/72/107 54/73/108
f 29/87/122 46/88/123 73/72/107
f 46/88/123 27/81/116 66/79/114
f 65/74/109 74/69/104 56/71/106
f 30/85/120 48/90/125 74/69/104
f 48/90/125 29/87/122 64/86/121
f 78/66/101 53/68/103 35/83/118
f 38/89/124 56/71/106 78/66/101
f 37/70/105 54/73/108 78/66/101
