# Blender (sub 0) OBJ File: 'o1.blend'
# www.blender.org
mtllib o1.mtl
o Icosphere.001
v 0.428608 -0.447474 0.747145
v 0.671680 -0.436609 -0.274721
v 0.214014 -0.075224 0.734382
v 0.341697 0.527529 -0.224344
v 0.604138 0.368309 0.298639
v 0.728212 0.245149 -0.745559
v 0.402689 -0.694288 -0.648722
v 0.591716 -0.841140 0.195176
v 1.046111 0.057864 0.330229
v 0.341692 0.338916 0.509240
v 0.186787 0.241586 0.631507
v 0.341589 0.085120 0.629186
v 0.493210 0.184193 0.510333
v 0.319619 0.191745 0.521955
v 0.364728 0.235794 0.619472
v 0.000000 -0.808838 0.002511
v -0.428608 -0.447474 0.747145
v 0.000000 -0.151724 -0.687287
v -0.671680 -0.436609 -0.274721
v -0.214014 -0.075224 0.734382
v -0.341697 0.527529 -0.224344
v -0.604138 0.368309 0.298639
v 0.000000 0.468496 0.568143
v -0.728212 0.245149 -0.745559
v -0.402689 -0.694288 -0.648722
v -0.591716 -0.841140 0.195176
v -1.046111 0.057864 0.330229
v 0.000000 0.080431 0.765312
v 0.000000 -0.078163 0.635472
v 0.000000 -0.447269 0.767999
v 0.000000 0.024553 0.767432
v 0.000000 0.604196 -0.181318
v -0.341692 0.338916 0.509240
v -0.186787 0.241586 0.631507
v -0.341589 0.085120 0.629186
v -0.493210 0.184193 0.510333
v -0.319619 0.191745 0.521955
v -0.364728 0.235794 0.619472
vt 0.046977 0.404208
vt 0.227556 0.459442
vt 0.163196 0.604677
vt 0.047163 0.570897
vt 0.374902 0.035258
vt 0.523882 0.429709
vt 0.374779 0.359208
vt 0.967468 0.367699
vt 0.603823 0.320809
vt 0.423293 0.686593
vt 0.407331 0.541430
vt 0.604325 0.720475
vt 0.631922 0.534429
vt 0.265551 0.907673
vt 0.119294 0.745004
vt 0.691705 0.893211
vt 0.046977 0.650960
vt 0.937196 0.118200
vt 0.852572 0.116994
vt 0.852064 0.190674
vt 0.766973 0.115746
vt 0.854188 0.043354
vt 0.929066 0.207706
vt 0.779652 0.024288
vt 0.929853 0.028623
vt 0.775219 0.207706
vt 0.163196 0.604677
vt 0.227556 0.459442
vt 0.374779 0.359208
vt 0.523882 0.429709
vt 0.603823 0.320809
vt 0.407331 0.541430
vt 0.423293 0.686593
vt 0.631922 0.534429
vt 0.604325 0.720475
vt 0.937196 0.118200
vt 0.852064 0.190674
vt 0.852572 0.116994
vt 0.766973 0.115746
vt 0.854188 0.043354
vt 0.929066 0.207706
vt 0.779652 0.024288
vt 0.929853 0.028623
vt 0.775219 0.207706
vn 0.0000 -0.5117 0.8591
vn 0.4216 -0.4002 0.8136
vn 0.3040 0.2429 0.9212
vn 0.0000 0.9133 0.4072
vn 0.0000 -0.9982 -0.0601
vn 0.8684 -0.3501 -0.3511
vn 0.5950 -0.7941 0.1241
vn 0.0000 -0.0215 -0.9998
vn 0.3089 -0.5955 -0.7416
vn 0.6189 0.7445 0.2503
vn 0.9536 0.2569 0.1572
vn 0.4101 0.8526 -0.3239
vn 0.6641 0.3892 -0.6383
vn 0.0000 0.7677 0.6408
vn 0.0000 0.1005 0.9949
vn 0.0000 0.9437 -0.3307
vn 0.0000 0.5924 0.8056
vn 0.9156 -0.1732 -0.3627
vn 0.4014 0.3912 0.8281
vn -0.0005 -0.9102 0.4140
vn -0.9174 0.1692 0.3601
vn 0.0015 0.8991 -0.4376
vn -0.3962 -0.3864 -0.8329
vn -0.3040 0.2429 0.9212
vn -0.4216 -0.4002 0.8136
vn -0.5950 -0.7941 0.1241
vn -0.8684 -0.3501 -0.3511
vn -0.3089 -0.5955 -0.7416
vn -0.9536 0.2569 0.1572
vn -0.6189 0.7445 0.2503
vn -0.6641 0.3892 -0.6383
vn -0.4101 0.8526 -0.3239
vn -0.9156 -0.1732 -0.3627
vn 0.0005 -0.9102 0.4140
vn -0.4014 0.3912 0.8281
vn 0.9174 0.1692 0.3601
vn -0.0015 0.8991 -0.4376
vn 0.3962 -0.3864 -0.8329
usemtl mat_o1
s 1
f 30/1/1 1/2/2 3/3/3 31/4/4
f 16/5/5 2/6/6 8/7/7
f 18/8/8 2/6/6 7/9/9
f 2/6/6 5/10/10 9/11/11
f 18/8/8 4/12/12 6/13/13
f 5/10/10 23/14/14 28/15/15 3/3/3
f 1/2/2 5/10/10 3/3/3
f 2/6/6 4/12/12 5/10/10
f 1/2/2 30/1/1 16/5/5
f 32/16/16 23/14/14 5/10/10 4/12/12
f 4/12/12 2/6/6 6/13/13
f 2/6/6 18/8/8 6/13/13
f 16/5/5 18/8/8 7/9/9
f 2/6/6 16/5/5 7/9/9
f 2/6/6 1/2/2 8/7/7
f 1/2/2 16/5/5 8/7/7
f 5/10/10 1/2/2 9/11/11
f 1/2/2 2/6/6 9/11/11
f 31/4/4 3/3/3 29/17/17
f 3/3/3 28/15/15 29/17/17
f 4/12/12 18/8/8 32/16/16
f 13/18/18 15/19/19 12/20/20
f 11/21/21 15/19/19 10/22/22
f 12/20/20 14/23/23 13/18/18
f 10/22/22 14/24/23 11/21/21
f 13/18/18 14/25/23 10/22/22
f 11/21/21 14/26/23 12/20/20
f 10/22/22 15/19/19 13/18/18
f 12/20/20 15/19/19 11/21/21
f 30/1/1 31/4/4 20/27/24 17/28/25
f 16/5/5 26/29/26 19/30/27
f 18/8/8 25/31/28 19/30/27
f 19/30/27 27/32/29 22/33/30
f 18/8/8 24/34/31 21/35/32
f 22/33/30 20/27/24 28/15/15 23/14/14
f 17/28/25 20/27/24 22/33/30
f 19/30/27 22/33/30 21/35/32
f 17/28/25 16/5/5 30/1/1
f 32/16/16 21/35/32 22/33/30 23/14/14
f 21/35/32 24/34/31 19/30/27
f 19/30/27 24/34/31 18/8/8
f 16/5/5 25/31/28 18/8/8
f 19/30/27 25/31/28 16/5/5
f 19/30/27 26/29/26 17/28/25
f 17/28/25 26/29/26 16/5/5
f 22/33/30 27/32/29 17/28/25
f 17/28/25 27/32/29 19/30/27
f 31/4/4 29/17/17 20/27/24
f 20/27/24 29/17/17 28/15/15
f 21/35/32 32/16/16 18/8/8
f 36/36/33 35/37/34 38/38/35
f 34/39/36 33/40/37 38/38/35
f 35/37/34 36/36/33 37/41/38
f 33/40/37 34/39/36 37/42/38
f 36/36/33 33/40/37 37/43/38
f 34/39/36 35/37/34 37/44/38
f 33/40/37 36/36/33 38/38/35
f 35/37/34 34/39/36 38/38/35
