# Blender (sub 0) OBJ File: '.blend'
# www.blender.org
mtllib col1.mtl
o Plane
v 1.000000 0.000000 0.000001
v 0.998796 0.000000 -0.049066
v 0.224558 -0.057568 0.000001
v 0.224558 0.000000 0.000001
v 0.998796 0.000000 -0.049066
v 1.000000 0.000000 0.000001
v 1.000000 -0.057568 0.000001
v 0.998796 -0.057568 -0.049066
vt 1.000000 0.000000
vt 1.000000 1.000000
vt 1.000000 1.000000
vt 1.000000 0.000000
vt 0.000000 0.000000
vt 0.000000 1.000000
vt 1.000000 1.000000
vt 1.000000 0.000000
vt 0.503906 0.988281
vt 0.387286 0.007812
vt 0.625000 0.009890
vt 0.000000 0.000000
vt 0.000000 1.000000
vt 1.000000 1.000000
vt 1.000000 0.000000
vt 0.000000 0.000000
vt 0.503906 1.000000
vt 1.000000 0.000000
vt 0.000064 0.000064
vt 0.409588 0.000064
vt 0.409588 0.999936
vt 0.000064 0.999936
vn 0.0000 0.0000 1.0000
vn -0.0632 0.0000 -0.9980
vn 0.0000 1.0000 0.0000
vn 0.0000 -1.0000 -0.0000
vn 0.9997 0.0000 -0.0245
usemtl None
s off
f 5/1/1 6/2/1 1/3/1 2/4/1
f 5/5/2 8/6/2 3/7/2 4/8/2
f 4/9/3 6/10/3 5/11/3
f 4/12/1 3/13/1 7/14/1 6/15/1
f 3/16/4 8/17/4 7/18/4
f 7/19/5 8/20/5 5/21/5 6/22/5
o Cone.001
v 0.995284 -0.005229 -0.031305
v 0.964155 -0.005229 -0.005412
v 0.957295 -0.005229 -0.045317
v 0.972245 0.069808 -0.027345
v 0.942909 -0.005229 -0.029950
v 0.914884 -0.005229 -0.000726
v 0.903588 -0.005229 -0.039608
v 0.920460 0.069808 -0.023428
v 0.885303 -0.005229 -0.029950
v 0.857278 -0.005229 -0.000726
v 0.845981 -0.005229 -0.039608
v 0.862854 0.069808 -0.023428
vn 0.6319 0.1539 0.7596
vn -0.9738 0.1539 0.1674
vn 0.3419 0.1539 -0.9270
vn 0.7132 0.1539 0.6839
vn -0.9489 0.1539 0.2757
vn 0.2357 0.1539 -0.9596
usemtl None
s off
f 9//6 12//6 10//6
f 10//7 12//7 11//7
f 11//8 12//8 9//8
f 13//9 16//9 14//9
f 14//10 16//10 15//10
f 15//11 16//11 13//11
f 17//9 20//9 18//9
f 18//10 20//10 19//10
f 19//11 20//11 17//11
