# Blender (sub 0) OBJ File: 'o2.blend'
# www.blender.org
mtllib o2.mtl
o Icosphere.001
v 0.082969 0.259538 0.663972
v 0.319982 0.083012 0.663211
v 0.423871 0.322230 0.473840
v 0.424324 0.164719 0.548999
v 0.156502 0.124144 0.679185
v 0.249555 0.309976 0.582729
v 0.206911 0.249190 0.500897
v 0.113858 0.063358 0.605695
v 0.381680 0.103934 0.467167
v 0.381227 0.261444 0.392007
v 0.277338 0.022226 0.558259
v 0.040324 0.198752 0.582139
v 0.350157 -0.447474 0.747145
v 0.728962 -0.460892 -0.022555
v 0.120247 -0.121859 0.736852
v 0.445671 0.191932 -0.238457
v 0.647722 0.342782 0.298639
v 0.193921 1.087478 -0.233476
v 1.250455 0.437376 -0.417008
v 0.212403 -0.000337 0.731911
v 0.223660 -0.075621 0.601066
v 0.288504 0.199507 0.685836
v -0.082969 0.259538 0.663972
v -0.319982 0.083012 0.663211
v -0.423871 0.322230 0.473840
v -0.424324 0.164719 0.548999
v -0.156502 0.124144 0.679185
v -0.249555 0.309976 0.582729
v -0.206911 0.249190 0.500897
v -0.113858 0.063358 0.605695
v -0.381680 0.103934 0.467167
v -0.381227 0.261444 0.392007
v -0.277338 0.022226 0.558259
v -0.040324 0.198752 0.582139
v 0.000000 -0.849417 -0.100413
v -0.350157 -0.447474 0.747145
v 0.000000 -0.621303 -0.666554
v -0.728962 -0.460892 -0.022555
v -0.120247 -0.121859 0.736852
v -0.445671 0.191932 -0.238457
v -0.647722 0.342782 0.298639
v 0.000000 0.473472 0.564839
v -0.193921 1.087478 -0.233476
v 0.000000 0.684754 0.011353
v -1.250455 0.437376 -0.417008
v 0.000000 0.075546 -0.839882
v 0.000000 -0.813940 0.485932
v -0.212403 -0.000337 0.731911
v 0.000000 0.003801 0.758478
v -0.223660 -0.075621 0.601066
v 0.000000 -0.442292 0.764695
v 0.000000 -0.191036 0.767659
v 0.000000 -0.073187 0.632168
v 0.000000 0.606200 -0.468371
v -0.288504 0.199507 0.685836
vt 0.840593 0.161523
vt 0.858705 0.116741
vt 0.892883 0.176660
vt 0.914730 0.134263
vt 0.881673 0.090980
vt 0.922812 0.029259
vt 0.967409 0.122416
vt 0.930709 0.220707
vt 0.800021 0.220707
vt 0.801721 0.120045
vt 0.742825 0.103829
vt 0.827170 0.077551
vt 0.807757 0.024937
vt 0.012506 0.554604
vt 0.138746 0.546806
vt 0.101684 0.685438
vt 0.042535 0.669085
vt 0.371346 0.652300
vt 0.300732 0.981332
vt 0.099520 0.803089
vt 0.151922 0.722807
vt 0.656911 0.613157
vt 0.451624 0.515832
vt 0.604907 0.953554
vt 0.445712 0.742276
vt 0.826271 0.842729
vt 0.392797 0.378033
vt 0.710104 0.148355
vt 0.931370 0.489940
vt 0.332366 0.109230
vt 0.074550 0.320882
vt 0.114937 0.723376
vt 0.068746 0.756301
vt 0.840593 0.161523
vt 0.892883 0.176660
vt 0.858705 0.116741
vt 0.914730 0.134263
vt 0.967409 0.122416
vt 0.922812 0.029259
vt 0.881673 0.090980
vt 0.800021 0.220707
vt 0.930709 0.220707
vt 0.801721 0.120045
vt 0.742825 0.103829
vt 0.827170 0.077551
vt 0.807757 0.024937
vt 0.101684 0.685438
vt 0.138746 0.546806
vt 0.371346 0.652300
vt 0.151922 0.722807
vt 0.656911 0.613157
vt 0.451624 0.515832
vt 0.445712 0.742276
vt 0.392797 0.378033
vt 0.114937 0.723376
vn -0.0762 0.9821 0.1721
vn 0.3319 0.2777 0.9015
vn 0.6421 0.7508 -0.1549
vn 0.9514 -0.1822 0.2481
vn 0.4520 -0.5339 0.7145
vn 0.3437 -0.8457 0.4081
vn 0.8615 -0.4997 -0.0897
vn 0.5555 0.5023 -0.6626
vn -0.3868 0.8253 -0.4115
vn -0.6063 0.5806 0.5434
vn -0.9117 0.3029 0.2775
vn -0.3018 -0.3872 0.8712
vn -0.4216 -0.6173 0.6642
vn 0.0000 -0.2864 0.9581
vn 0.5432 -0.3689 0.7542
vn 0.0471 0.6058 0.7942
vn 0.0000 0.3691 0.9294
vn 0.7243 0.4703 0.5041
vn 0.0000 0.6970 0.7170
vn 0.0000 -0.2677 0.9635
vn 0.2762 0.1460 0.9499
vn 0.4849 0.3638 -0.7953
vn 0.7514 0.4425 -0.4894
vn 0.0000 0.9901 0.1405
vn -0.1888 0.8550 -0.4829
vn 0.0000 0.8507 -0.5256
vn 0.8322 -0.5366 -0.1392
vn 0.0000 -0.5495 -0.8355
vn 0.0000 0.1223 -0.9925
vn 0.0000 -0.9948 -0.1012
vn 0.0000 -0.9496 0.3136
vn -0.6859 0.0568 0.7255
vn 0.0000 -0.0056 1.0000
vn 0.0762 0.9821 0.1721
vn -0.6421 0.7508 -0.1549
vn -0.3319 0.2777 0.9015
vn -0.9514 -0.1822 0.2481
vn -0.8615 -0.4997 -0.0897
vn -0.3437 -0.8457 0.4081
vn -0.4520 -0.5339 0.7145
vn 0.3868 0.8253 -0.4115
vn -0.5555 0.5023 -0.6626
vn 0.6063 0.5806 0.5434
vn 0.9117 0.3029 0.2775
vn 0.3018 -0.3872 0.8712
vn 0.4216 -0.6173 0.6642
vn -0.0471 0.6058 0.7942
vn -0.5432 -0.3689 0.7542
vn -0.7243 0.4703 0.5041
vn -0.2762 0.1460 0.9499
vn -0.4849 0.3638 -0.7953
vn -0.7514 0.4425 -0.4894
vn 0.1888 0.8550 -0.4829
vn -0.8322 -0.5366 -0.1392
vn 0.6859 0.0568 0.7255
usemtl mat_o1
s 1
f 6/1/1 22/2/2 3/3/3
f 4/4/4 2/5/5 11/6/6 9/7/7
f 6/1/1 3/3/3 10/8/8 7/9/9
f 3/3/3 4/4/4 9/7/7 10/8/8
f 1/10/10 6/1/1 7/9/9 12/11/11
f 5/12/12 1/10/10 12/11/11 8/13/13
f 2/5/5 5/12/12 8/13/13 11/6/6
f 51/14/14 13/15/15 15/16/16 52/17/17
f 17/18/18 42/19/19 49/20/20 20/21/21
f 16/22/22 17/18/18 19/23/23
f 13/15/15 17/18/18 20/21/21 15/16/16
f 42/19/19 16/22/22 44/24/24
f 16/22/22 42/19/19 18/25/25
f 42/19/19 17/18/18 18/25/25
f 17/18/18 16/22/22 18/25/25
f 16/22/22 54/26/26 44/24/24
f 14/27/27 16/22/22 19/23/23
f 17/18/18 14/27/27 19/23/23
f 16/22/22 37/28/28 46/29/29
f 35/30/30 13/15/15 47/31/31
f 15/16/16 20/21/21 21/32/32
f 13/15/15 51/14/14 47/31/31
f 52/17/17 15/16/16 21/32/32 53/33/33
f 20/21/21 49/20/20 53/33/33 21/32/32
f 46/29/29 54/26/26 16/22/22
f 6/1/1 1/10/10 22/2/2
f 5/12/12 22/2/2 1/10/10
f 2/5/5 22/2/2 5/12/12
f 4/4/4 22/2/2 2/5/5
f 3/3/3 22/2/2 4/4/4
f 13/15/15 14/27/27 17/18/18
f 13/15/15 35/30/30 14/27/27
f 35/30/30 37/28/28 14/27/27
f 14/27/27 37/28/28 16/22/22
f 28/34/34 25/35/35 55/36/36
f 26/37/37 31/38/38 33/39/39 24/40/40
f 28/34/34 29/41/41 32/42/42 25/35/35
f 25/35/35 32/42/42 31/38/38 26/37/37
f 23/43/43 34/44/44 29/41/41 28/34/34
f 27/45/45 30/46/46 34/44/44 23/43/43
f 24/40/40 33/39/39 30/46/46 27/45/45
f 51/14/14 52/17/17 39/47/47 36/48/48
f 41/49/49 48/50/50 49/20/20 42/19/19
f 40/51/51 45/52/52 41/49/49
f 36/48/48 39/47/47 48/50/50 41/49/49
f 42/19/19 44/24/24 40/51/51
f 40/51/51 43/53/53 42/19/19
f 42/19/19 43/53/53 41/49/49
f 41/49/49 43/53/53 40/51/51
f 40/51/51 44/24/24 54/26/26
f 38/54/54 45/52/52 40/51/51
f 41/49/49 45/52/52 38/54/54
f 40/51/51 46/29/29 37/28/28
f 35/30/30 47/31/31 36/48/48
f 39/47/47 50/55/55 48/50/50
f 36/48/48 47/31/31 51/14/14
f 52/17/17 53/33/33 50/55/55 39/47/47
f 48/50/50 50/55/55 53/33/33 49/20/20
f 46/29/29 40/51/51 54/26/26
f 28/34/34 55/36/36 23/43/43
f 27/45/45 23/43/43 55/36/36
f 24/40/40 27/45/45 55/36/36
f 26/37/37 24/40/40 55/36/36
f 25/35/35 26/37/37 55/36/36
f 36/48/48 41/49/49 38/54/54
f 36/48/48 38/54/54 35/30/30
f 35/30/30 38/54/54 37/28/28
f 38/54/54 40/51/51 37/28/28
