# Blender (sub 0) OBJ File: 'o3.blend'
# www.blender.org
mtllib o3.mtl
o Icosphere.001
v 0.150345 0.219766 0.614153
v 0.139115 0.127869 0.654031
v 0.401870 0.210673 0.494893
v 0.429959 0.118216 0.502987
v 0.266702 0.274844 0.546144
v 0.214354 0.249030 0.456523
v 0.048161 0.058551 0.589456
v 0.426642 0.045361 0.400403
v 0.390118 0.165586 0.389878
v 0.063050 0.177410 0.544957
v 0.495006 -0.393426 0.538114
v 0.706547 -0.468363 -0.022555
v 0.092252 -0.257068 0.741697
v 0.531595 0.408816 -0.010410
v 0.614100 0.260594 0.298639
v 1.026307 0.609223 -0.417008
v 0.091511 -0.176171 0.738771
v 0.118358 -0.205945 0.601066
v 0.264749 0.173542 0.523293
v -0.150345 0.219766 0.614153
v -0.139115 0.127869 0.654031
v -0.401870 0.210673 0.494893
v -0.429959 0.118216 0.502987
v -0.266702 0.274844 0.546144
v -0.214354 0.249030 0.456523
v -0.048161 0.058551 0.589456
v -0.426642 0.045361 0.400403
v -0.390118 0.165586 0.389878
v -0.063050 0.177410 0.544957
v 0.000000 -0.849417 -0.100413
v -0.495006 -0.393426 0.538114
v 0.000000 -0.621303 -0.666554
v -0.706547 -0.468363 -0.022555
v -0.092252 -0.257068 0.741697
v -0.531595 0.408816 -0.010410
v -0.614100 0.260594 0.298639
v 0.000000 0.473472 0.564839
v 0.000000 0.684754 0.011353
v -1.026307 0.609223 -0.417008
v 0.000000 0.075546 -0.839882
v 0.000000 -0.813940 0.485932
v -0.091511 -0.176171 0.738771
v 0.000000 -0.143006 0.754499
v -0.118358 -0.205945 0.601066
v 0.000000 -0.442292 0.764695
v 0.000000 -0.308258 0.759934
v 0.000000 -0.247300 0.632168
v 0.000000 0.606200 -0.468371
v -0.264749 0.173542 0.523293
vt 0.830256 0.176827
vt 0.821637 0.143685
vt 0.875003 0.135609
vt 0.869877 0.098227
vt 0.759880 0.124957
vt 0.708484 0.096325
vt 0.898090 0.034393
vt 0.948690 0.132919
vt 0.848619 0.261141
vt 0.772808 0.164143
vt 0.708484 0.194512
vt 0.164274 0.244801
vt 0.375296 0.427389
vt 0.147422 0.365914
vt 0.127069 0.292234
vt 0.266537 0.681925
vt 0.134899 0.835433
vt 0.059101 0.455386
vt 0.113732 0.424133
vt 0.470523 0.820843
vt 0.492750 0.597503
vt 0.378655 0.965733
vt 0.614928 0.965733
vt 0.601677 0.425836
vt 0.936372 0.488221
vt 0.862726 0.798573
vt 0.699358 0.215952
vt 0.372301 0.136016
vt 0.095174 0.382893
vt 0.042719 0.356753
vt 0.830256 0.176827
vt 0.875003 0.135609
vt 0.821637 0.143685
vt 0.869877 0.098227
vt 0.898090 0.034393
vt 0.708484 0.096325
vt 0.759880 0.124957
vt 0.848619 0.261141
vt 0.948690 0.132919
vt 0.772808 0.164143
vt 0.708484 0.194512
vt 0.147422 0.365914
vt 0.375296 0.427389
vt 0.266537 0.681925
vt 0.113732 0.424133
vt 0.470523 0.820843
vt 0.492750 0.597503
vt 0.601677 0.425836
vt 0.095174 0.382893
vn 0.2834 0.8148 0.5057
vn 0.4236 0.2710 0.8643
vn 0.6709 0.6544 0.3488
vn 0.8220 -0.1622 0.5459
vn -0.0271 -0.1121 0.9933
vn -0.3246 -0.3509 0.8783
vn 0.8534 -0.4442 0.2726
vn 0.7550 0.5677 -0.3282
vn -0.1090 0.9703 -0.2158
vn -0.1037 0.6964 0.7101
vn -0.6573 0.6164 0.4335
vn 0.0000 -0.3524 0.9358
vn 0.7016 -0.3339 0.6295
vn 0.0138 0.4301 0.9026
vn 0.0000 0.3613 0.9324
vn 0.6811 0.4187 0.6007
vn 0.0000 0.6902 0.7236
vn 0.0000 -0.2425 0.9701
vn 0.2141 -0.1662 0.9626
vn 0.3359 0.9048 -0.2616
vn 0.5257 0.5812 -0.6212
vn 0.0000 0.9956 0.0938
vn 0.0000 0.8010 -0.5987
vn 0.8704 -0.4534 -0.1915
vn 0.0000 -0.5225 -0.8526
vn 0.0000 0.0869 -0.9962
vn 0.0000 -0.9942 -0.1070
vn 0.0000 -0.9173 0.3982
vn -0.6413 -0.1286 0.7564
vn 0.0000 0.2557 0.9668
vn -0.2834 0.8148 0.5057
vn -0.6709 0.6544 0.3488
vn -0.4236 0.2710 0.8643
vn -0.8220 -0.1622 0.5459
vn -0.8534 -0.4442 0.2726
vn 0.3246 -0.3509 0.8783
vn 0.0271 -0.1121 0.9933
vn 0.1090 0.9703 -0.2158
vn -0.7550 0.5677 -0.3282
vn 0.1037 0.6964 0.7101
vn 0.6573 0.6164 0.4335
vn -0.0138 0.4301 0.9026
vn -0.7016 -0.3339 0.6295
vn -0.6811 0.4187 0.6007
vn -0.2141 -0.1662 0.9626
vn -0.3359 0.9048 -0.2616
vn -0.5257 0.5812 -0.6212
vn -0.8704 -0.4534 -0.1915
vn 0.6413 -0.1286 0.7564
usemtl mat_o1
s 1
f 5/1/1 19/2/2 3/3/3
f 4/4/4 2/5/5 7/6/6 8/7/7
f 5/1/1 3/3/3 9/8/8 6/9/9
f 3/3/3 4/4/4 8/7/7 9/8/8
f 1/10/10 5/1/1 6/9/9 10/11/11
f 2/5/5 1/10/10 10/11/11 7/6/6
f 45/12/12 11/13/13 13/14/14 46/15/15
f 15/16/16 37/17/17 43/18/18 17/19/19
f 14/20/20 15/16/16 16/21/21
f 11/13/13 15/16/16 17/19/19 13/14/14
f 14/20/20 38/22/22 37/17/17 15/16/16
f 14/20/20 48/23/23 38/22/22
f 12/24/24 14/20/20 16/21/21
f 15/16/16 12/24/24 16/21/21
f 14/20/20 32/25/25 40/26/26
f 30/27/27 11/13/13 41/28/28
f 13/14/14 17/19/19 18/29/29
f 11/13/13 45/12/12 41/28/28
f 46/15/15 13/14/14 18/29/29 47/30/30
f 17/19/19 43/18/18 47/30/30 18/29/29
f 40/26/26 48/23/23 14/20/20
f 5/1/1 1/10/10 19/2/2
f 2/5/5 19/2/2 1/10/10
f 4/4/4 19/2/2 2/5/5
f 3/3/3 19/2/2 4/4/4
f 11/13/13 12/24/24 15/16/16
f 11/13/13 30/27/27 12/24/24
f 30/27/27 32/25/25 12/24/24
f 12/24/24 32/25/25 14/20/20
f 24/31/31 22/32/32 49/33/33
f 23/34/34 27/35/35 26/36/36 21/37/37
f 24/31/31 25/38/38 28/39/39 22/32/32
f 22/32/32 28/39/39 27/35/35 23/34/34
f 20/40/40 29/41/41 25/38/38 24/31/31
f 21/37/37 26/36/36 29/41/41 20/40/40
f 45/12/12 46/15/15 34/42/42 31/43/43
f 36/44/44 42/45/45 43/18/18 37/17/17
f 35/46/46 39/47/47 36/44/44
f 31/43/43 34/42/42 42/45/45 36/44/44
f 35/46/46 36/44/44 37/17/17 38/22/22
f 35/46/46 38/22/22 48/23/23
f 33/48/48 39/47/47 35/46/46
f 36/44/44 39/47/47 33/48/48
f 35/46/46 40/26/26 32/25/25
f 30/27/27 41/28/28 31/43/43
f 34/42/42 44/49/49 42/45/45
f 31/43/43 41/28/28 45/12/12
f 46/15/15 47/30/30 44/49/49 34/42/42
f 42/45/45 44/49/49 47/30/30 43/18/18
f 40/26/26 35/46/46 48/23/23
f 24/31/31 49/33/33 20/40/40
f 21/37/37 20/40/40 49/33/33
f 23/34/34 21/37/37 49/33/33
f 22/32/32 23/34/34 49/33/33
f 31/43/43 36/44/44 33/48/48
f 31/43/43 33/48/48 30/27/27
f 30/27/27 33/48/48 32/25/25
f 33/48/48 35/46/46 32/25/25
