# Blender (sub 0) OBJ File: 'o6.blend'
# www.blender.org
mtllib o6.mtl
o Icosphere.001
v 0.484936 -0.397612 0.424620
v 0.561421 -0.078560 -0.219308
v 0.254731 -0.097220 0.600092
v 0.497370 0.479260 -0.284449
v 0.535523 0.431099 0.419005
v 0.366064 -0.905290 -0.113566
v 1.020509 -0.121801 0.000871
v 0.810525 -0.566447 0.343214
v 0.229683 -0.008468 0.667989
v 0.433216 0.032270 0.659702
v 0.266808 0.249004 0.615616
v 0.460599 0.222171 0.621074
v 0.329193 -0.003749 0.667029
v 0.365960 0.251237 0.615161
v 0.235430 0.119820 0.641893
v 0.459723 0.127669 0.640297
v 0.347577 0.123744 0.641095
v 0.347577 0.102147 0.519857
v 0.000000 -0.624662 -0.221827
v -0.484936 -0.397612 0.424620
v 0.000000 -0.435135 -0.583575
v -0.561421 -0.078560 -0.219308
v -0.254731 -0.097220 0.600092
v -0.497370 0.479260 -0.284449
v -0.535523 0.431099 0.419005
v 0.000000 0.546189 0.497579
v 0.000000 0.678527 -0.176336
v 0.000000 0.028178 -0.670325
v 0.000000 -0.590829 0.413084
v 0.000000 -0.109735 0.774387
v 0.000000 -0.442292 0.604121
v 0.000000 -0.109719 0.568242
v 0.000000 0.479358 -0.552492
v 0.000000 -0.166319 0.749106
v -0.366064 -0.905290 -0.113566
v -1.020509 -0.121801 0.000871
v -0.810525 -0.566447 0.343214
v -0.229683 -0.008468 0.667989
v -0.433216 0.032270 0.659702
v -0.266808 0.249004 0.615616
v -0.460599 0.222171 0.621074
v -0.329193 -0.003749 0.667029
v -0.365960 0.251237 0.615161
v -0.235430 0.119820 0.641893
v -0.459723 0.127669 0.640297
v -0.347577 0.123744 0.641095
v -0.347577 0.102147 0.519857
vt 0.829779 0.157619
vt 0.909102 0.096413
vt 0.953180 0.162062
vt 0.910618 0.231536
vt 0.749117 0.218196
vt 0.845369 0.280377
vt 0.700786 0.136516
vt 0.746693 0.086041
vt 0.834167 0.043555
vt 0.729149 0.268168
vt 0.949988 0.267351
vt 0.752180 0.019615
vt 0.931884 0.048365
vt 0.829779 0.157619
vt 0.910618 0.231536
vt 0.953180 0.162062
vt 0.909102 0.096413
vt 0.749117 0.218196
vt 0.845369 0.280377
vt 0.700786 0.136516
vt 0.746693 0.086041
vt 0.834167 0.043555
vt 0.729149 0.268168
vt 0.949988 0.267351
vt 0.752180 0.019615
vt 0.931884 0.048365
vt 0.310314 0.215286
vt 0.375522 0.390765
vt 0.223721 0.390879
vt 0.190136 0.252295
vt 0.078913 0.369467
vt 0.134806 0.305611
vt 0.262231 0.595950
vt 0.456677 0.719178
vt 0.405997 0.599364
vt 0.631431 0.899352
vt 0.365113 0.953298
vt 0.499291 0.540114
vt 0.809146 0.680667
vt 0.688923 0.265605
vt 0.400681 0.201157
vt 0.078913 0.692025
vt 0.401491 0.474979
vt 0.508294 0.397168
vt 0.812997 0.423084
vt 0.223721 0.390879
vt 0.375522 0.390765
vt 0.262231 0.595950
vt 0.456677 0.719178
vt 0.405997 0.599364
vt 0.499291 0.540114
vt 0.401491 0.474979
vt 0.508294 0.397168
vn 0.0000 0.1993 0.9799
vn -0.7328 0.0398 -0.6792
vn 0.2083 0.5084 -0.8355
vn -0.0160 0.5399 -0.8416
vn 0.2392 -0.8021 -0.5472
vn 0.7255 -0.3250 -0.6067
vn 0.0330 -0.8132 -0.5810
vn 0.7393 -0.1408 -0.6585
vn -0.7398 -0.1021 -0.6650
vn 0.7328 0.0398 -0.6792
vn -0.2083 0.5084 -0.8355
vn 0.0160 0.5399 -0.8416
vn -0.2392 -0.8021 -0.5472
vn -0.7255 -0.3250 -0.6067
vn -0.0330 -0.8132 -0.5810
vn -0.7393 -0.1408 -0.6585
vn 0.7398 -0.1021 -0.6650
vn 0.0000 -0.5685 0.8227
vn 0.3787 -0.6302 0.6778
vn 0.4358 -0.0305 0.8995
vn 0.0000 0.2876 0.9577
vn 0.0000 -0.4583 0.8888
vn 0.0000 -0.1134 0.9935
vn 0.6314 0.5595 0.5369
vn 0.6171 0.6149 -0.4909
vn 0.8210 -0.5630 0.0944
vn 0.0000 0.5671 -0.8237
vn 0.0000 0.9900 -0.1409
vn 0.7011 -0.3280 -0.6331
vn 0.0000 -0.0112 -0.9999
vn 0.0000 -0.8965 -0.4431
vn 0.0000 -0.9457 0.3249
vn 0.0000 0.7520 0.6592
vn 0.5776 -0.7971 0.1764
vn 0.1959 -0.9668 -0.1638
vn 0.0000 -0.6106 -0.7919
vn -0.4358 -0.0305 0.8995
vn -0.3787 -0.6302 0.6778
vn -0.6314 0.5595 0.5369
vn -0.6171 0.6149 -0.4909
vn -0.8210 -0.5630 0.0944
vn -0.7011 -0.3280 -0.6331
vn -0.5776 -0.7971 0.1764
vn -0.1959 -0.9668 -0.1638
usemtl mat_o1
s off
f 17/1/1 16/2/1 12/3/1 14/4/1
f 15/5/1 17/1/1 14/4/1 11/6/1
f 9/7/1 13/8/1 17/1/1 15/5/1
f 13/8/1 10/9/1 16/2/1 17/1/1
f 15/5/2 11/6/2 18/10/2
f 14/4/3 12/3/3 18/11/3
f 11/6/4 14/4/4 18/11/4
f 10/9/5 13/8/5 18/12/5
f 16/2/6 10/9/6 18/13/6
f 13/8/7 9/7/7 18/12/7
f 12/3/8 16/2/8 18/13/8
f 9/7/9 15/5/9 18/10/9
f 46/14/1 43/15/1 41/16/1 45/17/1
f 44/18/1 40/19/1 43/15/1 46/14/1
f 38/20/1 44/18/1 46/14/1 42/21/1
f 42/21/1 46/14/1 45/17/1 39/22/1
f 44/18/10 47/23/10 40/19/10
f 43/15/11 47/24/11 41/16/11
f 40/19/12 47/24/12 43/15/12
f 39/22/13 47/25/13 42/21/13
f 45/17/14 47/26/14 39/22/14
f 42/21/15 47/25/15 38/20/15
f 41/16/16 47/26/16 45/17/16
f 38/20/17 47/23/17 44/18/17
s 1
f 31/27/18 1/28/19 3/29/20 34/30/21
f 3/29/20 30/31/22 32/32/23
f 1/28/19 5/33/24 3/29/20
f 4/34/25 5/33/24 7/35/26
f 4/34/25 33/36/27 27/37/28
f 2/38/29 28/39/30 4/34/25
f 19/40/31 1/28/19 29/41/32
f 3/29/20 5/33/24 26/42/33 30/31/22
f 1/28/19 31/27/18 29/41/32
f 28/39/30 33/36/27 4/34/25
f 2/38/29 5/33/24 8/43/34
f 19/40/31 2/38/29 6/44/35
f 19/40/31 21/45/36 2/38/29
f 2/38/29 21/45/36 28/39/30
f 26/42/33 5/33/24 27/37/28
f 5/33/24 4/34/25 27/37/28
f 3/29/20 32/32/23 34/30/21
f 2/38/29 1/28/19 6/44/35
f 1/28/19 19/40/31 6/44/35
f 2/38/29 4/34/25 7/35/26
f 5/33/24 2/38/29 7/35/26
f 5/33/24 1/28/19 8/43/34
f 1/28/19 2/38/29 8/43/34
f 31/27/18 34/30/21 23/46/37 20/47/38
f 23/46/37 32/32/23 30/31/22
f 20/47/38 23/46/37 25/48/39
f 24/49/40 36/50/41 25/48/39
f 24/49/40 27/37/28 33/36/27
f 22/51/42 24/49/40 28/39/30
f 19/40/31 29/41/32 20/47/38
f 23/46/37 30/31/22 26/42/33 25/48/39
f 20/47/38 29/41/32 31/27/18
f 28/39/30 24/49/40 33/36/27
f 22/51/42 37/52/43 25/48/39
f 19/40/31 35/53/44 22/51/42
f 19/40/31 22/51/42 21/45/36
f 22/51/42 28/39/30 21/45/36
f 26/42/33 27/37/28 25/48/39
f 25/48/39 27/37/28 24/49/40
f 23/46/37 34/30/21 32/32/23
f 22/51/42 35/53/44 20/47/38
f 20/47/38 35/53/44 19/40/31
f 22/51/42 36/50/41 24/49/40
f 25/48/39 36/50/41 22/51/42
f 25/48/39 37/52/43 20/47/38
f 20/47/38 37/52/43 22/51/42
