# Blender (sub 0) OBJ File: ''
# www.blender.org
mtllib a.mtl
o Plane_Plane.002
v -1.000000 0.000000 1.000000
v 1.000000 0.000000 1.000000
v -1.000000 0.000000 -1.000000
v 1.000000 0.000000 -1.000000
v -1.000000 2.485801 1.000000
v 0.500000 2.485801 1.000000
v -1.000000 2.485801 -1.000000
v 0.500000 2.485801 -1.000000
v 0.500000 3.491440 -1.000000
v 0.500000 2.952290 -1.000000
v 1.000000 2.952290 -0.250000
v 1.000000 2.952290 -0.500000
v 1.000000 2.952290 0.500000
v 0.500000 2.952290 0.500000
v 0.500000 2.952290 -0.500000
v 1.000000 2.952290 0.250000
v 0.500000 2.952290 0.250000
v 0.500000 2.952290 -0.250000
v 1.000000 3.491440 1.000000
v 1.000000 3.491440 -1.000000
v 1.000000 3.491440 0.500000
v 0.500000 3.491440 0.500000
v 0.500000 3.491440 -0.500000
v 0.500000 3.491440 1.000000
v 1.000000 3.491440 -0.500000
v 1.000000 3.491440 0.250000
v 1.000000 3.491440 -0.250000
v 0.500000 3.491440 0.250000
v 0.500000 3.491440 -0.250000
vt 0.000086 0.000086
vt 0.736295 0.000086
vt 0.276164 0.845520
vt 0.711934 0.552243
vt 0.999914 0.736295
vt 0.000086 0.736295
vt 0.000098 0.999902
vt 0.966818 0.000098
vt 0.966818 0.999902
vt 0.736294 0.999914
vt 0.552242 0.999914
vt 0.552242 0.845520
vt 0.000000 0.000000
vt 1.000000 0.000000
vt 1.000000 1.000000
vt 0.000000 1.000000
vt 0.460216 0.845520
vt 0.460216 0.999914
vt 0.500000 1.000000
vt 0.975528 0.654508
vt 0.793893 0.095491
vt 0.024472 0.654509
vt 0.500000 1.000000
vt 0.793893 0.095491
vt 0.206107 0.095492
vt 0.024472 0.654509
vt 0.184139 0.845520
vt 0.250000 0.000150
vt 0.499850 0.000150
vt 0.499850 0.499850
vt 0.000150 0.250000
vt 0.750000 0.499850
vt 0.500150 0.250000
vt 0.500150 0.000150
vt 0.999850 0.000150
vt 0.000150 0.500150
vt 0.499850 0.500150
vt 0.499850 0.999850
vt 0.000150 0.999850
vt 0.184139 0.999914
vt 0.000086 0.999914
vt 0.000000 0.000000
vt 1.000000 0.000000
vt 1.000000 1.000000
vt 0.000000 1.000000
vt 0.000000 0.000000
vt 1.000000 0.000000
vt 1.000000 1.000000
vt 0.000000 1.000000
vt 0.736295 0.000086
vt 0.552243 0.711934
vt 0.000086 0.000086
vt 0.276164 0.999914
vt 0.000000 0.000000
vt 1.000000 0.000000
vt 1.000000 1.000000
vt 0.000000 1.000000
vt 0.000000 0.000000
vt 1.000000 0.000000
vt 1.000000 1.000000
vt 1.000000 0.000000
vt 1.000000 1.000000
vt 0.000086 0.000086
vt 0.711934 0.368190
vt 0.845520 0.552243
vt 0.999914 0.552243
vt 0.736295 0.999914
vt 0.552243 0.999914
vt 0.000086 0.711934
vt 0.000098 0.000098
vt 1.000000 0.000000
vt 1.000000 1.000000
vt 0.000000 1.000000
vt 0.000000 0.000000
vt 1.000000 0.000000
vt 1.000000 1.000000
vt 1.000000 1.000000
vt 0.000000 1.000000
vt 1.000000 1.000000
vt 0.000000 1.000000
vt 1.000000 1.000000
vt 0.000000 1.000000
vn 1.0000 0.0000 0.0000
vn 0.0000 0.0000 -1.0000
vn -1.0000 0.0000 0.0000
vn 0.0000 0.0000 1.0000
vn 0.0000 1.0000 0.0000
usemtl None
s off
f 2/1/1 4/2/1 16/3/1
f 8/4/2 20/5/2 4/6/2
f 5/7/3 3/8/3 1/9/3
f 20/10/1 25/11/1 12/12/1
f 17/13/4 16/14/4 26/15/4 28/16/4
f 11/17/1 27/18/1 16/3/1
f 15/19/5 18/20/5 11/21/5 12/22/5
f 17/23/5 14/24/5 13/25/5 16/26/5
f 13/27/1 2/1/1 16/3/1
f 19/28/5 21/29/5 22/30/5 24/31/5
f 20/32/5 9/33/5 23/34/5 25/35/5
f 28/36/5 26/37/5 27/38/5 29/39/5
f 13/27/1 21/40/1 19/41/1
f 4/2/1 20/10/1 12/12/1
f 15/42/4 12/43/4 25/44/4 23/45/4
f 13/46/2 14/47/2 22/48/2 21/49/2
f 2/50/4 6/51/4 1/52/4
f 4/2/1 11/17/1 16/3/1
f 27/18/1 26/53/1 16/3/1
f 11/54/2 18/55/2 29/56/2 27/57/2
f 19/41/1 2/1/1 13/27/1
f 4/2/1 12/12/1 11/17/1
f 7/58/5 6/59/5 8/60/5
f 7/58/5 5/61/5 6/62/5
f 4/6/2 3/63/2 8/4/2
f 3/63/2 7/64/2 8/4/2
f 8/4/2 10/65/2 20/5/2
f 10/65/2 9/66/2 20/5/2
f 2/50/4 19/67/4 6/51/4
f 19/67/4 24/68/4 6/51/4
f 6/51/4 5/69/4 1/52/4
f 5/7/3 7/70/3 3/8/3
f 6/59/3 17/71/3 18/72/3
f 10/73/3 8/74/3 15/75/3
f 8/74/3 6/59/3 18/72/3
f 15/75/3 8/74/3 18/72/3
f 6/59/3 24/76/3 14/77/3
f 24/76/3 22/78/3 14/77/3
f 23/79/3 9/80/3 10/73/3
f 15/75/3 23/79/3 10/73/3
f 6/59/3 14/77/3 17/71/3
f 17/71/3 28/81/3 29/82/3
f 17/71/3 29/82/3 18/72/3
