# Blender (sub 0) OBJ File: ''
# www.blender.org
mtllib b.mtl
o Plane
v -1.000000 0.000000 1.000000
v 1.000000 0.000000 1.000000
v -1.000000 4.138474 1.000000
v 1.000000 4.138474 1.000000
v -0.032141 4.138474 0.636654
v 1.000000 0.000000 -1.000000
v 1.000000 4.138474 -1.000000
v 1.000000 4.138474 1.000000
v -1.000000 0.000000 -1.000000
v 1.000000 0.000000 -1.000000
v -1.000000 4.138474 -1.000000
v -1.000000 4.138474 1.000000
v 1.000000 4.138474 -1.000000
v -0.032141 4.138474 -1.363346
v -1.159306 4.158898 0.116682
v 0.841419 4.139973 0.111601
vt 0.868154 0.197497
vt 0.514595 0.400893
vt 0.549483 0.000093
vt 0.353514 0.293194
vt 0.000093 0.501167
vt 0.306948 0.368630
vt 0.264200 0.494437
vt 0.103218 0.854749
vt 0.294214 0.606201
vt 0.396462 0.721193
vt 0.068590 0.140941
vt 0.383864 0.245960
vt 0.546766 0.589195
vt 0.692382 0.503137
vt 0.868154 0.812178
vt 0.543689 0.999907
vt 0.365299 0.695787
vt 0.693862 0.505692
vn 0.0000 0.0875 0.9962
vn 0.3515 0.0000 0.9362
vn -0.9900 0.0000 -0.1412
vn 0.3321 0.0000 -0.9433
vn -0.3515 0.0000 -0.9362
vn -0.9841 0.0000 0.1775
vn -0.0017 1.0000 0.0000
vn -0.3321 0.0000 0.9433
vn 0.9993 0.0383 0.0000
vn 0.9900 0.0000 0.1412
vn -0.9993 -0.0383 0.0000
vn 0.0000 -0.0875 -0.9962
vn 0.9844 0.0000 -0.1757
vn 0.0005 1.0000 -0.0013
vn -0.0006 1.0000 0.0018
vn 0.0081 0.9997 0.0217
vn 0.0000 1.0000 0.0000
vn 0.0249 0.9996 -0.0147
usemtl None
s off
f 2/1/1 5/2/1 1/3/1
f 5/2/2 3/4/2 1/3/2
f 9/5/3 15/6/3 11/7/3
f 10/8/4 14/9/4 13/10/4
f 14/9/5 9/5/5 11/7/5
f 15/6/6 1/11/6 12/12/6
f 5/2/7 16/13/7 14/9/7
f 2/1/8 4/14/8 5/2/8
f 2/15/9 6/16/9 16/13/9
f 6/16/10 7/17/10 16/13/10
f 9/5/11 1/11/11 15/6/11
f 10/8/12 9/5/12 14/9/12
f 2/15/13 16/13/13 8/18/13
f 16/13/14 13/10/14 14/9/14
f 4/14/15 8/18/15 16/13/15 5/2/15
f 15/6/16 12/12/16 5/2/16
f 14/9/17 11/7/17 5/2/17
f 11/7/18 15/6/18 5/2/18
